<?xml version="1.0" standalone="no"?>
<!DOCTYPE svg PUBLIC "-//W3C//DTD SVG 20010904//EN"
 "http://www.w3.org/TR/2001/REC-SVG-20010904/DTD/svg10.dtd">
<svg version="1.0" xmlns="http://www.w3.org/2000/svg"
 width="917.000000pt" height="917.000000pt" viewBox="0 0 917.000000 917.000000"
 preserveAspectRatio="xMidYMid meet">
<metadata>
Created by potrace 1.11, written by Peter Selinger 2001-2013
</metadata>
<g transform="translate(0.000000,917.000000) scale(0.100000,-0.100000)"
fill="#000000" stroke="none">
<path d="M365 7393 c-42 -9 -111 -38 -147 -60 -92 -57 -179 -178 -207 -288
-15 -55 -15 -4840 -1 -4916 22 -116 121 -256 217 -305 21 -10 41 -23 45 -29 4
-5 8 -7 8 -3 0 4 16 0 35 -8 20 -8 40 -12 45 -9 5 3 11 1 15 -5 4 -7 1224 -10
3746 -10 l3740 0 650 652 c516 518 649 657 650 677 0 14 1 54 2 89 1 36 -2 62
-8 62 -7 0 -7 3 0 8 9 6 9 27 4 112 0 8 0 79 1 157 1 78 -1 146 -4 152 -4 5
-2 12 3 16 7 3 7 15 1 29 -5 13 -6 26 -3 29 7 8 8 282 0 293 -3 6 -2 16 2 23
5 7 5 30 1 52 -4 21 -4 39 1 39 4 0 5 12 2 28 -3 15 -5 34 -4 42 4 58 1 221
-3 229 -4 5 -2 12 2 15 5 3 7 18 5 33 -2 16 -4 35 -4 43 3 110 1 221 -3 229
-4 5 -2 12 2 15 5 3 7 18 5 33 -2 16 -4 35 -4 43 3 110 1 221 -3 229 -4 5 -2
12 2 15 5 3 7 18 5 33 -2 16 -4 33 -4 38 1 32 1 212 0 225 0 8 0 50 1 92 1 42
-1 82 -5 87 -3 6 -2 11 4 11 5 0 7 12 5 28 -3 15 -5 34 -5 42 0 14 1 114 0
145 0 8 2 83 3 165 2 95 -1 150 -7 150 -7 0 -7 3 0 8 6 4 9 27 8 52 -2 25 -3
52 -3 60 -1 8 0 54 1 102 2 48 0 90 -3 94 -4 3 -3 17 2 30 5 13 6 24 2 24 -4
0 -5 27 -2 60 3 33 2 60 -3 60 -4 0 -5 5 -2 11 8 12 9 274 1 306 -2 13 0 25 5
28 5 4 7 9 5 13 -2 4 -7 25 -10 47 -27 173 -151 312 -330 369 -45 14 -447 16
-4245 15 -2308 -1 -4205 -3 -4216 -6z"/>
</g>
</svg>
