<?xml version="1.0" encoding="UTF-8" standalone="no"?>
<svg
   xmlns:dc="http://purl.org/dc/elements/1.1/"
   xmlns:cc="http://creativecommons.org/ns#"
   xmlns:rdf="http://www.w3.org/1999/02/22-rdf-syntax-ns#"
   xmlns:svg="http://www.w3.org/2000/svg"
   xmlns="http://www.w3.org/2000/svg"
   xmlns:sodipodi="http://sodipodi.sourceforge.net/DTD/sodipodi-0.dtd"
   xmlns:inkscape="http://www.inkscape.org/namespaces/inkscape"
   width="688pt"
   height="424pt"
   viewBox="0 0 688 424"
   version="1.1"
   id="svg40"
   sodipodi:docname="norm.svg"
   inkscape:version="0.92.3 (2405546, 2018-03-11)"
   inkscape:export-filename="/home/willi/Desktop/logo_export_2480x3507.png"
   inkscape:export-xdpi="299.92526"
   inkscape:export-ydpi="299.92526">
  <metadata
     id="metadata44">
    <rdf:RDF>
      <cc:Work
         rdf:about="">
        <dc:format>image/svg+xml</dc:format>
        <dc:type
           rdf:resource="http://purl.org/dc/dcmitype/StillImage" />
        <dc:title />
      </cc:Work>
    </rdf:RDF>
  </metadata>
  <sodipodi:namedview
     pagecolor="#ffffff"
     bordercolor="#666666"
     borderopacity="1"
     objecttolerance="10"
     gridtolerance="10"
     guidetolerance="10"
     inkscape:pageopacity="0"
     inkscape:pageshadow="2"
     inkscape:window-width="1820"
     inkscape:window-height="1292"
     id="namedview42"
     showgrid="false"
     inkscape:zoom="0.61700581"
     inkscape:cx="655.73209"
     inkscape:cy="-135.92375"
     inkscape:window-x="829"
     inkscape:window-y="629"
     inkscape:window-maximized="0"
     inkscape:current-layer="g9" />
  <defs
     id="defs5">
    <clipPath
       id="clip1">
      <path
         d="M 0 0.660156 L 687.40625 0.660156 L 687.40625 424 L 0 424 Z M 0 0.660156 "
         id="path2" />
    </clipPath>
  </defs>
  <g
     id="surface1">
    <g
       clip-path="url(#clip1)"
       id="g9"
       style="clip-rule:nonzero">
      <path
         style="fill:#0093d0;fill-opacity:1;fill-rule:nonzero;stroke:none"
         d="M 687.40625,326.14062 V 35.078125 c 0,-19.011719 -15.41016,-34.417969 -34.41406,-34.417969 H 34.417969 C 15.410156,0.660156 0,16.066406 0,35.078125 V 389.58203 C 0,408.58984 15.410156,424 34.417969,424 H 589.77344 l 97.63281,-97.85938"
         id="path7"
         inkscape:connector-curvature="0" />
    </g>
    <path
       style="fill:#ffffff;fill-opacity:1;fill-rule:nonzero;stroke:none"
       d="m 64.59375,251.59766 v -65.07813 h 12.050781 c 1.210938,0 2.226563,0.26953 3.042969,0.82031 0.816406,0.54297 1.390625,1.35547 1.726562,2.44532 l 1.0625,3.51171 c 1.089844,-1.1289 2.222657,-2.16015 3.390626,-3.10156 1.171874,-0.9414 2.4375,-1.76172 3.796874,-2.45312 1.359376,-0.6836 2.824219,-1.23438 4.394532,-1.63282 1.566406,-0.39062 3.292968,-0.58984 5.179687,-0.58984 3.929689,0 7.183599,1.01172 9.757809,3.04297 2.57032,2.03125 4.52344,4.73437 5.86329,8.12109 1.08984,-2 2.41796,-3.71875 3.98828,-5.14062 1.5664,-1.42188 3.26172,-2.57031 5.08203,-3.45313 1.82031,-0.8789 3.74219,-1.52734 5.77343,-1.94531 2.02735,-0.41797 4.05079,-0.625 6.0586,-0.625 3.71875,0 7.02734,0.55078 9.91015,1.66016 2.89063,1.10937 5.30469,2.72265 7.25,4.83593 1.94532,2.10547 3.42188,4.70313 4.42579,7.78125 1.0039,3.07422 1.50781,6.55469 1.50781,10.44532 v 41.35547 h -19.45703 v -41.35547 c 0,-6.73438 -2.88672,-10.10547 -8.66016,-10.10547 -2.63672,0 -4.82422,0.87109 -6.55859,2.60547 -1.73438,1.73828 -2.60547,4.23437 -2.60547,7.5 v 41.35547 h -19.45313 v -41.35547 c 0,-3.72266 -0.73046,-6.33594 -2.195309,-7.83985 -1.464843,-1.51172 -3.621093,-2.26562 -6.464843,-2.26562 -1.753907,0 -3.417969,0.39844 -4.988282,1.19531 -1.570312,0.79297 -3.042968,1.85938 -4.425781,3.19922 v 47.06641 H 64.59375"
       id="path11"
       inkscape:connector-curvature="0" />
    <path
       style="fill:#ffffff;fill-opacity:1;fill-rule:nonzero;stroke:none"
       d="m 201.65234,238.16406 c 4.47657,0 7.77344,-1.57422 9.88672,-4.73437 2.10938,-3.16016 3.16797,-7.96094 3.16797,-14.40235 0,-6.4375 -1.05859,-11.23047 -3.16797,-14.36718 -2.11328,-3.14063 -5.41015,-4.71094 -9.88672,-4.71094 -4.60156,0 -7.97265,1.57031 -10.10156,4.71094 -2.13672,3.13671 -3.20312,7.92968 -3.20312,14.36718 0,6.44141 1.0664,11.24219 3.20312,14.40235 2.12891,3.16015 5.5,4.73437 10.10156,4.73437 z m 0,-52.64453 c 4.9375,0 9.4336,0.77344 13.49219,2.31641 4.05859,1.55078 7.53906,3.76953 10.44922,6.65625 2.90625,2.88281 5.16797,6.39453 6.77734,10.50781 1.60938,4.125 2.41407,8.75781 2.41407,13.89844 0,5.1914 -0.80469,9.86718 -2.41407,14.02734 -1.60937,4.16406 -3.87109,7.69531 -6.77734,10.60938 -2.91016,2.90234 -6.39063,5.14453 -10.44922,6.71093 -4.05859,1.57032 -8.55469,2.35157 -13.49219,2.35157 -4.98047,0 -9.50781,-0.78125 -13.58593,-2.35157 -4.07813,-1.5664 -7.59375,-3.80859 -10.54297,-6.71093 -2.94922,-2.91407 -5.23047,-6.44532 -6.83985,-10.60938 -1.61328,-4.16016 -2.41797,-8.83594 -2.41797,-14.02734 0,-5.14063 0.80469,-9.77344 2.41797,-13.89844 1.60938,-4.11328 3.89063,-7.625 6.83985,-10.50781 2.94922,-2.88672 6.46484,-5.10547 10.54297,-6.65625 4.07812,-1.54297 8.60546,-2.31641 13.58593,-2.31641"
       id="path13"
       inkscape:connector-curvature="0" />
    <path
       style="fill:#ffffff;fill-opacity:1;fill-rule:nonzero;stroke:none"
       d="m 277.21094,200.13672 c -1.42578,0 -2.71094,0.14062 -3.85938,0.41015 -1.15234,0.26954 -2.21875,0.65625 -3.20312,1.16407 -0.98438,0.49609 -1.89063,1.13672 -2.72657,1.91406 -0.83984,0.77344 -1.67578,1.66016 -2.51562,2.66406 v 27.60938 c 1.46875,1.63281 3.05859,2.77343 4.77344,3.42187 1.71484,0.64844 3.51172,0.97266 5.39453,0.97266 1.80078,0 3.45312,-0.35547 4.96094,-1.06641 1.5039,-0.71484 2.8125,-1.85547 3.91796,-3.42187 1.10938,-1.57032 1.98047,-3.60547 2.60938,-6.11719 0.625,-2.51172 0.9375,-5.5625 0.9375,-9.16406 0,-3.42969 -0.25,-6.3125 -0.75,-8.65625 -0.50391,-2.34375 -1.20313,-4.23438 -2.10547,-5.67969 -0.89844,-1.44531 -1.97266,-2.47656 -3.23047,-3.10938 -1.25781,-0.625 -2.65625,-0.9414 -4.20312,-0.9414 z m -31.75782,51.46094 v -93.94532 h 19.45313 v 35.77344 c 2.42969,-2.38672 5.18359,-4.30078 8.25391,-5.74219 3.07812,-1.44531 6.6875,-2.16406 10.82812,-2.16406 3.39063,0 6.52734,0.73047 9.41016,2.19531 2.89062,1.46094 5.3789,3.60938 7.46875,6.42969 2.09375,2.82813 3.73437,6.28516 4.92968,10.38672 1.19141,4.10156 1.78516,8.76562 1.78516,13.99219 0,4.89843 -0.67969,9.41015 -2.03906,13.55468 -1.35938,4.14063 -3.26172,7.74219 -5.71094,10.79688 -2.44531,3.05469 -5.375,5.4375 -8.78125,7.14844 -3.41406,1.71484 -7.19141,2.57422 -11.33203,2.57422 -1.92188,0 -3.64844,-0.1875 -5.17578,-0.56641 -1.52735,-0.375 -2.92969,-0.90625 -4.20703,-1.59766 -1.27344,-0.6914 -2.44532,-1.51562 -3.51172,-2.48047 -1.06641,-0.96093 -2.10547,-2.00781 -3.10938,-3.13671 l -0.6875,3.26562 c -0.29297,1.33984 -0.82812,2.25781 -1.59765,2.76172 -0.77735,0.50391 -1.79297,0.75391 -3.04688,0.75391 h -12.92969"
       id="path15"
       inkscape:connector-curvature="0" />
    <path
       style="fill:#ffffff;fill-opacity:1;fill-rule:nonzero;stroke:none"
       d="m 338.32812,186.51953 v 65.07813 H 318.875 v -65.07813 z m 2.26172,-17.82422 c 0,1.55078 -0.3164,3.00391 -0.9414,4.36719 -0.62891,1.35547 -1.48438,2.55078 -2.57422,3.57422 -1.08985,1.02344 -2.35156,1.84375 -3.79688,2.44531 -1.4414,0.60938 -2.98047,0.91406 -4.61328,0.91406 -1.58984,0 -3.07422,-0.30468 -4.45312,-0.91406 -1.38282,-0.60156 -2.60547,-1.42187 -3.67188,-2.44531 -1.0664,-1.02344 -1.90234,-2.21875 -2.51172,-3.57422 -0.60547,-1.36328 -0.91015,-2.81641 -0.91015,-4.36719 0,-1.58594 0.30468,-3.07031 0.91015,-4.45312 0.60938,-1.37891 1.44532,-2.59375 2.51172,-3.64063 1.06641,-1.04687 2.28906,-1.85937 3.67188,-2.44531 1.3789,-0.58594 2.86328,-0.88281 4.45312,-0.88281 1.63281,0 3.17188,0.29687 4.61328,0.88281 1.44532,0.58594 2.70703,1.39844 3.79688,2.44531 1.08984,1.04688 1.94531,2.26172 2.57422,3.64063 0.625,1.38281 0.9414,2.86718 0.9414,4.45312"
       id="path17"
       inkscape:connector-curvature="0" />
    <path
       style="fill:#ffffff;fill-opacity:1;fill-rule:nonzero;stroke:none"
       d="m 374.09766,157.65234 v 93.94532 h -19.44922 v -93.94532 h 19.44922"
       id="path19"
       inkscape:connector-curvature="0" />
    <path
       style="fill:#ffffff;fill-opacity:1;fill-rule:nonzero;stroke:none"
       d="m 418.02734,198.94922 c -3.72265,0 -6.63281,1.05469 -8.72656,3.16406 -2.08984,2.11328 -3.46875,5.15625 -4.14062,9.13672 h 24.28906 c 0,-1.55078 -0.19922,-3.05469 -0.59766,-4.52344 -0.39844,-1.46484 -1.04687,-2.76953 -1.94922,-3.92187 -0.89453,-1.15235 -2.07812,-2.08203 -3.53906,-2.78907 -1.46875,-0.71484 -3.24609,-1.0664 -5.33594,-1.0664 z m -0.375,-13.42969 c 4.30469,0 8.25,0.66797 11.82422,2.00781 3.57813,1.33985 6.65625,3.28125 9.23047,5.83203 2.57031,2.55469 4.57813,5.6836 6.01953,9.38282 1.44531,3.70312 2.16797,7.89843 2.16797,12.58593 0,1.46485 -0.0664,2.65235 -0.1875,3.57032 -0.12891,0.92578 -0.35937,1.65625 -0.69141,2.19922 -0.33593,0.54687 -0.78515,0.92187 -1.35156,1.125 -0.5625,0.21093 -1.28125,0.3164 -2.16015,0.3164 h -37.53125 c 0.625,5.44141 2.28125,9.38672 4.96093,11.83203 2.67188,2.44532 6.125,3.66797 10.35157,3.66797 2.25781,0 4.20703,-0.26953 5.83593,-0.8125 1.63282,-0.54297 3.08203,-1.15234 4.36328,-1.82031 1.27344,-0.67188 2.44532,-1.27734 3.51172,-1.82031 1.07032,-0.54297 2.1875,-0.81641 3.35938,-0.81641 1.54297,0 2.71875,0.56641 3.51172,1.69531 l 5.65234,6.96875 c -2.00781,2.30078 -4.17969,4.16797 -6.49609,5.61328 -2.32422,1.44532 -4.71094,2.57422 -7.15625,3.38672 -2.44532,0.82032 -4.89453,1.38282 -7.33985,1.69532 -2.44922,0.3125 -4.78515,0.46875 -7,0.46875 -4.5625,0 -8.83984,-0.74219 -12.83203,-2.22657 -3.99609,-1.48047 -7.48828,-3.6875 -10.48047,-6.62109 -2.98828,-2.92969 -5.35937,-6.56641 -7.08984,-10.91797 -1.73828,-4.34766 -2.60547,-9.41016 -2.60547,-15.19141 0,-4.34375 0.74219,-8.46484 2.22656,-12.35546 1.48438,-3.89063 3.61719,-7.30079 6.39844,-10.22657 2.78516,-2.93359 6.15234,-5.25 10.10547,-6.96875 3.95312,-1.71484 8.42187,-2.57031 13.40234,-2.57031"
       id="path21"
       inkscape:connector-curvature="0" />
    <path
       style="fill:#ffffff;fill-opacity:1;fill-rule:nonzero;stroke:none"
       d="m 204.16016,352.03906 c 2.51171,0 4.70703,-0.4414 6.58984,-1.32031 1.88281,-0.875 3.78516,-2.29688 5.71094,-4.26563 v -8.91015 c -3.89063,0 -7.09375,0.2539 -9.60157,0.75781 -2.50781,0.50391 -4.5,1.13672 -5.96093,1.89844 -1.46485,0.76172 -2.48047,1.625 -3.04297,2.59375 -0.56641,0.97265 -0.84766,2.02344 -0.84766,3.16406 0,2.24219 0.60547,3.8125 1.82031,4.72266 1.21094,0.90625 2.98829,1.35937 5.33204,1.35937 z M 226.5,363.89844 c -1.83984,0 -3.23047,-0.25 -4.17188,-0.75391 -0.9414,-0.50391 -1.72656,-1.54687 -2.35546,-3.13672 l -1.37891,-3.57812 c -1.62891,1.3789 -3.19922,2.59375 -4.70703,3.63672 -1.50391,1.04687 -3.06641,1.9375 -4.67578,2.66796 -1.60938,0.73829 -3.32422,1.28125 -5.14453,1.63282 -1.82032,0.35547 -3.83985,0.53125 -6.05469,0.53125 -2.97266,0 -5.67188,-0.38672 -8.09766,-1.16016 -2.42578,-0.77344 -4.48437,-1.92187 -6.17969,-3.42969 -1.69531,-1.51172 -3.0039,-3.39453 -3.92187,-5.64062 -0.92188,-2.24219 -1.38281,-4.83594 -1.38281,-7.77344 0,-2.30859 0.58593,-4.67578 1.75781,-7.11328 1.17187,-2.43359 3.20312,-4.64453 6.08594,-6.64453 2.88672,-1.99219 6.78125,-3.65625 11.67578,-5 4.89453,-1.34766 11.0664,-2.01563 18.51172,-2.01563 v -2.78906 c 0,-3.83984 -0.78516,-6.61719 -2.35157,-8.32812 -1.57031,-1.71094 -3.80078,-2.56641 -6.68359,-2.56641 -2.30469,0 -4.18359,0.25391 -5.64844,0.75 -1.46484,0.50391 -2.77343,1.07031 -3.92187,1.69922 -1.15235,0.625 -2.27344,1.1914 -3.35938,1.69531 -1.08984,0.49609 -2.38281,0.75391 -3.89062,0.75391 -1.33985,0 -2.48047,-0.32813 -3.42188,-0.97657 -0.9375,-0.64843 -1.68359,-1.45703 -2.22656,-2.41796 l -3.51172,-6.08594 c 3.92969,-3.46875 8.28906,-6.05469 13.08203,-7.7461 4.78907,-1.69921 9.92578,-2.54687 15.40625,-2.54687 3.92969,0 7.47657,0.64062 10.63672,1.91406 3.16016,1.28125 5.83594,3.05469 8.03125,5.33594 2.19922,2.27734 3.88281,4.99219 5.05469,8.12891 1.16797,3.13671 1.75391,6.5664 1.75391,10.28906 v 40.66797 H 226.5"
       id="path23"
       inkscape:connector-curvature="0" />
    <path
       style="fill:#ffffff;fill-opacity:1;fill-rule:nonzero;stroke:none"
       d="m 272.05859,364.89844 c -3.09375,0 -5.82422,-0.44532 -8.1875,-1.34375 -2.36328,-0.90235 -4.35156,-2.17578 -5.96484,-3.82813 -1.60938,-1.65625 -2.83203,-3.65234 -3.66797,-5.99609 -0.83594,-2.34375 -1.25391,-4.95703 -1.25391,-7.84375 v -33.64063 h -5.52343 c -1.00391,0 -1.86328,-0.3164 -2.57422,-0.97265 -0.71094,-0.64453 -1.06641,-1.59766 -1.06641,-2.85547 v -7.58985 l 10.35547,-2.01171 3.82813,-15.875 c 0.5039,-2.00782 1.92578,-3.00782 4.26953,-3.00782 h 10.16406 v 19.01172 H 288.25 v 13.30078 h -15.8125 v 32.32422 c 0,1.50391 0.36719,2.75 1.09766,3.73438 0.73437,0.98047 1.78906,1.47265 3.17187,1.47265 0.71094,0 1.30469,-0.0742 1.78516,-0.21875 0.48047,-0.14843 0.89843,-0.3125 1.25781,-0.5 0.35156,-0.1914 0.6875,-0.35547 1.00391,-0.5039 0.3125,-0.14453 0.67578,-0.22266 1.09765,-0.22266 0.58594,0 1.05469,0.14063 1.41016,0.41016 0.35547,0.26953 0.72265,0.70312 1.09765,1.28906 l 5.90235,9.22266 c -2.51172,1.88281 -5.33594,3.29296 -8.47266,4.23437 -3.13672,0.94141 -6.38281,1.41016 -9.73047,1.41016"
       id="path25"
       inkscape:connector-curvature="0" />
    <path
       style="fill:#ffffff;fill-opacity:1;fill-rule:nonzero;stroke:none"
       d="m 319.50391,269.94922 v 93.94922 h -19.45313 v -93.94922 h 19.45313"
       id="path27"
       inkscape:connector-curvature="0" />
    <path
       style="fill:#ffffff;fill-opacity:1;fill-rule:nonzero;stroke:none"
       d="m 357.78516,352.03906 c 2.5039,0 4.70312,-0.4414 6.58203,-1.32031 1.89062,-0.875 3.79297,-2.29688 5.71093,-4.26563 v -8.91015 c -3.88671,0 -7.08593,0.2539 -9.59765,0.75781 -2.50781,0.50391 -4.5,1.13672 -5.96094,1.89844 -1.46484,0.76172 -2.48047,1.625 -3.04297,2.59375 -0.5664,0.97265 -0.84765,2.02344 -0.84765,3.16406 0,2.24219 0.60546,3.8125 1.82031,4.72266 1.21094,0.90625 2.98828,1.35937 5.33594,1.35937 z m 22.33593,11.85938 c -1.83984,0 -3.23047,-0.25 -4.17187,-0.75391 -0.9375,-0.50391 -1.72266,-1.54687 -2.35547,-3.13672 l -1.37891,-3.57812 c -1.63281,1.3789 -3.19531,2.59375 -4.70703,3.63672 -1.5039,1.04687 -3.0664,1.9375 -4.67578,2.66796 -1.60937,0.73829 -3.32812,1.28125 -5.14844,1.63282 -1.8125,0.35547 -3.83203,0.53125 -6.05078,0.53125 -2.97265,0 -5.67187,-0.38672 -8.09375,-1.16016 -2.42969,-0.77344 -4.48828,-1.92187 -6.18359,-3.42969 -1.69531,-1.51172 -3.00391,-3.39453 -3.92188,-5.64062 -0.92187,-2.24219 -1.3789,-4.83594 -1.3789,-7.77344 0,-2.30859 0.58203,-4.67578 1.75781,-7.11328 1.16797,-2.43359 3.19922,-4.64453 6.08594,-6.64453 2.88281,-1.99219 6.77734,-3.65625 11.67187,-5 4.89063,-1.34766 11.06641,-2.01563 18.50781,-2.01563 v -2.78906 c 0,-3.83984 -0.77734,-6.61719 -2.34765,-8.32812 -1.57031,-1.71094 -3.79688,-2.56641 -6.6875,-2.56641 -2.30078,0 -4.1836,0.25391 -5.64453,0.75 -1.46485,0.50391 -2.76953,1.07031 -3.92188,1.69922 -1.15234,0.625 -2.27344,1.1914 -3.35937,1.69531 -1.08594,0.49609 -2.38282,0.75391 -3.89063,0.75391 -1.33984,0 -2.47656,-0.32813 -3.41797,-0.97657 -0.9414,-0.64843 -1.6875,-1.45703 -2.22656,-2.41796 l -3.51562,-6.08594 c 3.93359,-3.46875 8.29296,-6.05469 13.08593,-7.7461 4.78516,-1.69921 9.92188,-2.54687 15.40235,-2.54687 3.92968,0 7.47656,0.64062 10.63672,1.91406 3.16015,1.28125 5.83984,3.05469 8.03515,5.33594 2.19531,2.27734 3.87891,4.99219 5.05078,8.12891 1.16797,3.13671 1.75391,6.5664 1.75391,10.28906 v 40.66797 h -8.91016"
       id="path29"
       inkscape:connector-curvature="0" />
    <path
       style="fill:#ffffff;fill-opacity:1;fill-rule:nonzero;stroke:none"
       d="m 442.62109,313.06641 c -0.49609,0.79296 -1.03125,1.35546 -1.59765,1.69531 -0.5625,0.33203 -1.28125,0.5039 -2.16407,0.5039 -0.91796,0 -1.83984,-0.19921 -2.75781,-0.59765 -0.92187,-0.39844 -1.91797,-0.82422 -2.98437,-1.28906 -1.0625,-0.46094 -2.26953,-0.88672 -3.60938,-1.28516 -1.33594,-0.39844 -2.86328,-0.59766 -4.57812,-0.59766 -2.46875,0 -4.36328,0.46875 -5.67969,1.41016 -1.31641,0.94141 -1.97656,2.25391 -1.97656,3.92187 0,1.21875 0.42578,2.22266 1.28515,3.01172 0.85547,0.79688 1.9961,1.5 3.42188,2.10157 1.42187,0.60937 3.03125,1.1875 4.83594,1.73046 1.79687,0.54688 3.63281,1.14844 5.51953,1.81641 1.88281,0.67188 3.71875,1.45703 5.52343,2.35547 1.79688,0.89844 3.41016,2.00781 4.83204,3.32812 1.42187,1.31641 2.5625,2.91797 3.41796,4.80079 0.85938,1.8789 1.28516,4.14062 1.28516,6.77734 0,3.21875 -0.58594,6.19141 -1.75391,8.90625 -1.17578,2.72266 -2.91796,5.06641 -5.24218,7.03516 -2.32422,1.96484 -5.1875,3.49218 -8.59766,4.58203 -3.41016,1.08203 -7.33203,1.625 -11.76562,1.625 -2.21875,0 -4.4375,-0.20313 -6.64844,-0.625 -2.22266,-0.41407 -4.36719,-0.98438 -6.4375,-1.69141 -2.07031,-0.71484 -3.98438,-1.5625 -5.7461,-2.54297 -1.7539,-0.98437 -3.25781,-2.03906 -4.51171,-3.16797 l 4.51171,-7.15625 c 0.54297,-0.83593 1.19922,-1.49218 1.94922,-1.97656 0.75391,-0.48047 1.73828,-0.72266 2.94922,-0.72266 1.12891,0 2.14063,0.25391 3.04688,0.75 0.89453,0.50391 1.86718,1.04688 2.91406,1.63282 1.04687,0.58593 2.26953,1.1289 3.67578,1.63281 1.39844,0.50391 3.16797,0.75391 5.29688,0.75391 1.50781,0 2.78515,-0.15625 3.83203,-0.47266 1.04297,-0.3125 1.8789,-0.73828 2.51172,-1.28125 0.625,-0.54688 1.08593,-1.15234 1.3789,-1.82031 0.29297,-0.67188 0.4375,-1.36328 0.4375,-2.07422 0,-1.29688 -0.4375,-2.36328 -1.3164,-3.19922 -0.875,-0.83594 -2.02735,-1.55859 -3.44922,-2.16406 -1.42578,-0.60938 -3.04297,-1.17188 -4.86328,-1.69141 -1.82032,-0.52734 -3.67579,-1.125 -5.55469,-1.79687 -1.88281,-0.66797 -3.73828,-1.46875 -5.5586,-2.41016 -1.82031,-0.94141 -3.4414,-2.13672 -4.86328,-3.58203 -1.42187,-1.44141 -2.57031,-3.20703 -3.44531,-5.30078 -0.87891,-2.08985 -1.32422,-4.6211 -1.32422,-7.58985 0,-2.76172 0.53906,-5.39062 1.60547,-7.8789 1.0625,-2.48828 2.66797,-4.67578 4.79688,-6.5586 2.13671,-1.88281 4.8125,-3.375 8.03515,-4.48828 3.21875,-1.10547 6.98438,-1.66015 11.29297,-1.66015 2.34766,0 4.61328,0.21093 6.8125,0.625 2.19531,0.42187 4.25391,1.00781 6.17969,1.76171 1.92578,0.75 3.67969,1.64454 5.27344,2.66407 1.58984,1.02343 2.98828,2.14453 4.19921,3.35547 l -4.39453,6.84375"
       id="path31"
       inkscape:connector-curvature="0" />
    <path
       style="fill:#ffffff;fill-opacity:1;fill-rule:nonzero;stroke:none"
       d="m 483.875,212.31641 h -16.99609 c 0,-25.78125 -20.98047,-46.75391 -46.76172,-46.75391 v -17 c 35.15625,0 63.75781,28.60156 63.75781,63.75391"
       id="path33"
       inkscape:connector-curvature="0" />
    <path
       style="fill:#ffffff;fill-opacity:1;fill-rule:nonzero;stroke:none"
       d="m 517.69922,212.30859 h -16.9961 c 0,-44.43359 -36.14843,-80.58593 -80.58593,-80.58593 v -16.9961 c 53.80859,0 97.58203,43.77344 97.58203,97.58203"
       id="path35"
       inkscape:connector-curvature="0" />
    <path
       style="fill:#ffffff;fill-opacity:1;fill-rule:nonzero;stroke:none"
       d="m 549.89062,211.94141 h -17 c 0,-62.1836 -50.58593,-112.773441 -112.77343,-112.773441 V 82.171875 c 71.55468,0 129.77343,58.214845 129.77343,129.769535"
       id="path37"
       inkscape:connector-curvature="0" />
  </g>
</svg>
