<?xml version="1.0" standalone="no"?>
<!DOCTYPE svg PUBLIC "-//W3C//DTD SVG 1.1//EN" "http://www.w3.org/Graphics/SVG/1.1/DTD/svg11.dtd">
<svg xmlns="http://www.w3.org/2000/svg">
<defs >
<font id="Jost" horiz-adv-x="546" ><font-face
    font-family="Jost SemiBold"
    units-per-em="1000"
    panose-1="0 0 0 0 0 0 0 0 0 0"
    ascent="1070"
    descent="-375"
    alphabetic="0" />
<glyph unicode=" " horiz-adv-x="300" />
<glyph unicode="!" horiz-adv-x="330" d="M85 700L114 221H216L245 700H85ZM83 55Q83 22 106 1T165 -21Q201 -21 224 0T247 55Q247 88 224 109T165 131Q130 131 107 110T83 55Z" />
<glyph unicode="&quot;" horiz-adv-x="501" d="M113 700L67 387H152L253 700H113ZM314 700L269 387H354L454 700H314Z" />
<glyph unicode="#" horiz-adv-x="648" d="M75 421H215L238 425H438L463 421H613V524H75V421ZM35 181H573V284H447L421 280H200L173 284H35V181ZM468 700L415 484L413 458L363 249L352 225L298 0H411L581 700H468ZM236 700L66 0H180L235 226L236 249L287 459L298
486L350 700H236Z" />
<glyph unicode="$" horiz-adv-x="609" d="M261 818L265 647H365L369 818H261ZM265 57L261 -112H369L365 57H265ZM446 497L555 562Q537 599 506 633T427 688T312 710Q245 710 192 685T109 619T79 527Q79 477 97 441T145 380T206 339T264 314Q305 299 339 283T394
246T415 191Q415 164 405 146T373 118T319 108Q280 108 249 123T193 169T145 243L40 172Q62 121 103 80T198 15T314 -10Q392 -10 448 14T534 85T565 194Q565 241 550 275T509 335T452 378T387 408Q345 424 308 438T249 473T226 525Q226 548 235 564T265 589T316
599Q347 599 370 586T412 549T446 497Z" />
<glyph unicode="%" horiz-adv-x="867" d="M26 539Q26 491 49 451T114 386T206 362Q258 362 298 386T362 450T385 539Q385 589 362 629T299 692T206 716Q155 716 114 693T50 629T26 539ZM134 539Q134 560 143 577T168 604T206 615Q228 615 243 605T268 577T277
539Q277 519 268 502T244 474T206 464Q184 464 168 474T143 501T134 539ZM481 161Q481 112 504 72T569 8T661 -16Q713 -16 753 8T817 72T840 161Q840 210 817 250T754 314T661 338Q610 338 569 315T505 251T481 161ZM589 161Q589 182 598 199T623 226T661 236Q683
236 698 226T723 199T732 161Q732 141 723 124T699 96T661 86Q639 86 623 96T598 123T589 161ZM623 700L113 0H244L754 700H623Z" />
<glyph unicode="&amp;" horiz-adv-x="728" d="M223 375L561 0H710L340 408Q303 449 277 479T250 541Q250 569 269 589T324 610Q347 610 363 601T387 575T396 540Q396 511 366 480T280 419Q259 409 229 397T165 367T104 326T58 267T40 186Q40 125 73 81T160 12T278
-12Q350 -12 411 13T523 78T617 169T695 268L606 333Q574 286 538 244T463 169T381 118T294 99Q258 99 232 111T191 146T176 197Q176 230 193 252T237 290T294 320T352 352Q392 378 422 400T473 445T505 493T516 550Q516 592 494 629T429 691T325 715Q263 715 218
692T148 631T123 547Q123 511 139 481T179 425T223 375Z" />
<glyph unicode="&apos;" horiz-adv-x="300" d="M113 700L67 387H152L253 700H113Z" />
<glyph unicode="(" horiz-adv-x="331" d="M194 780Q134 668 105 543T75 290Q75 163 104 38T194 -200H312Q260 -87 233 38T206 290Q206 418 233 543T312 780H194Z" />
<glyph unicode=")" horiz-adv-x="331" d="M137 -200Q197 -87 226 38T256 290Q256 418 227 543T137 780H19Q72 668 99 543T126 290Q126 163 99 38T19 -200H137Z" />
<glyph unicode="*" horiz-adv-x="592" d="M490 602L285 509L307 445L526 490L490 602ZM475 332L323 497L269 457L379 263L475 332ZM213 263L323 457L269 497L117 332L213 263ZM66 490L285 445L307 509L102 602L66 490ZM237 700L262 477H330L355 700H237Z" />
<glyph unicode="+" horiz-adv-x="656" d="M65 202H591V327H65V202ZM261 528V1H395V528H261Z" />
<glyph unicode="," horiz-adv-x="319" d="M129 110L41 -149L137 -172L258 78L129 110Z" />
<glyph unicode="-" horiz-adv-x="219" d="M5 181H214V294H5V181Z" />
<glyph unicode="." horiz-adv-x="315" d="M76 59Q76 27 99 3T158 -21Q194 -21 217 3T240 59Q240 93 217 116T158 140Q123 140 100 117T76 59Z" />
<glyph unicode="/" horiz-adv-x="579" d="M439 700L15 -150H144L564 700H439Z" />
<glyph unicode="0" horiz-adv-x="643" d="M179 350Q179 403 189 446T218 521T263 570T321 587Q354 587 380 570T425 522T454 447T464 350Q464 297 454 254T425 179T380 130T321 113Q289 113 263 130T218 178T189 253T179 350ZM40 350Q40 239 75 158T174 33T321
-12Q407 -12 470 32T568 158T603 350Q603 461 568 542T470 667T321 712Q238 712 175 668T76 542T40 350Z" />
<glyph unicode="1" horiz-adv-x="491" d="M71 518L239 562V0H378V712L71 647V518Z" />
<glyph unicode="2" horiz-adv-x="629" d="M20 0H583V131H290L472 303Q516 343 543 392T570 497Q570 535 555 573T508 642T429 693T318 713Q233 713 175 678T86 582T56 447H196Q196 489 210 521T251 570T315 588Q341 588 361 580T395 557T416 525T423 488Q423 461
413 436T384 386T338 332L20 0Z" />
<glyph unicode="3" horiz-adv-x="597" d="M268 341Q347 341 409 362T507 423T543 521Q543 574 516 617T438 686T313 712Q244 712 192 685T111 612T81 505H214Q214 544 242 569T313 595Q343 595 362 585T391 556T401 512Q401 492 392 474T365 441T324 418T268 410V341ZM307
-14Q385 -14 442 11T531 83T563 189Q563 242 541 279T479 341T386 377T268 388V312Q305 312 333 305T381 283T411 249T421 204Q421 171 407 149T369 116T311 104Q279 104 252 116T209 153T193 211H51Q51 166 69 126T120 54T200 4T307 -14Z" />
<glyph unicode="4" horiz-adv-x="662" d="M16 129H624V251H481L464 236H214L379 472V187L367 176V0H514V700H417L16 129Z" />
<glyph unicode="5" horiz-adv-x="620" d="M580 226Q580 298 551 349T473 429T368 457Q337 457 308 452T252 432L294 576H569V700H188L92 306Q128 326 160 336T224 351T283 356Q321 356 353 343T405 303T425 239Q425 200 408 174T360 133T283 119Q254 119 222 130T161
162T106 207L39 96Q68 67 106 43T194 3T309 -12Q360 -12 408 2T495 45T557 119T580 226Z" />
<glyph unicode="6" horiz-adv-x="640" d="M190 241Q190 280 207 310T253 357T320 374Q357 374 386 358T433 311T450 241Q450 201 433 172T387 126T320 109Q283 109 254 125T207 171T190 241ZM332 698L120 420Q90 382 70 338T50 241Q50 159 86 102T184 16T320 -14Q395
-14 456 15T553 102T590 241Q590 292 572 334T524 406T456 452T377 468Q340 468 315 460T263 425L289 434L513 698H332Z" />
<glyph unicode="7" horiz-adv-x="579" d="M30 566H366L85 0H239L576 700H30V566Z" />
<glyph unicode="8" horiz-adv-x="602" d="M78 531Q78 485 96 451T146 393T218 358T301 346Q344 346 384 358T455 393T505 450T524 531Q524 587 494 628T413 691T301 714Q239 714 189 692T108 628T78 531ZM212 517Q212 543 223 564T255 596T301 607Q327 607 347
596T378 564T389 517Q389 490 378 470T346 439T301 427Q276 427 256 438T224 470T212 517ZM53 190Q53 144 72 107T127 42T206 1T301 -14Q351 -14 395 0T474 42T529 106T549 190Q549 243 527 281T469 345T388 382T301 394Q258 394 214 382T134 345T75 282T53 190ZM194
211Q194 240 208 264T247 302T301 316Q329 316 353 302T393 264T408 211Q408 176 393 153T354 117T301 104Q272 104 248 116T209 152T194 211Z" />
<glyph unicode="9" horiz-adv-x="640" d="M450 459Q450 420 433 390T387 343T320 326Q283 326 254 343T207 390T190 459Q190 499 207 528T253 574T320 591Q357 591 386 575T433 529T450 459ZM308 2L521 280Q550 318 570 362T590 459Q590 541 554 598T456 684T320
714Q245 714 184 685T87 598T50 459Q50 408 68 366T116 294T185 248T263 232Q300 232 326 240T377 275L352 266L127 2H308Z" />
<glyph unicode=":" horiz-adv-x="315" d="M76 59Q76 27 99 3T158 -21Q194 -21 217 3T240 59Q240 93 217 116T158 140Q123 140 100 117T76 59ZM76 435Q76 402 99 378T158 354Q194 354 217 378T240 435Q240 468 217 492T158 516Q123 516 100 492T76 435Z" />
<glyph unicode=";" horiz-adv-x="373" d="M121 431Q121 398 144 374T203 350Q239 350 262 374T285 431Q285 464 262 487T203 511Q168 511 145 488T121 431ZM144 110L56 -149L152 -172L273 78L144 110Z" />
<glyph unicode="&lt;" horiz-adv-x="640" d="M254 266L575 392V519L65 304V220L575 4V131L254 266Z" />
<glyph unicode="=" horiz-adv-x="623" d="M59 101H564V215H59V101ZM59 290H564V404H59V290Z" />
<glyph unicode="&gt;" horiz-adv-x="640" d="M386 258L65 131V4L575 220V304L65 519V392L386 258Z" />
<glyph unicode="?" horiz-adv-x="605" d="M419 500Q419 471 399 441T339 390T238 369H207L227 191H330L336 287Q390 294 439 321T518 394T549 500Q549 550 530 589T476 657T398 701T306 716Q247 716 201 701T119 658T51 590L142 519Q169 560 209 582T296 605Q334
605 361 593T404 557T419 500ZM198 53Q198 23 221 1T280 -21Q316 -21 339 1T362 53Q362 83 339 105T280 127Q245 127 222 105T198 53Z" />
<glyph unicode="@" horiz-adv-x="770" d="M300 320Q300 354 312 381T343 425T385 441Q403 441 416 433T436 408T444 366Q444 326 431 299T397 259T357 245Q329 245 315 264T300 320ZM194 314Q194 265 211 230T259 175T328 156Q372 156 408 180T466 253T488 370Q488
412 474 448T432 507T365 530Q325 530 286 505T220 432T194 314ZM24 320Q24 221 63 144T178 23T365 -21Q445 -21 500 -6T600 35L563 115Q518 90 473 79T374 68Q292 68 236 99T151 186T122 320Q122 387 142 443T201 541T293 606T415 630Q473 630 516 611T589 558T633
482T648 390Q648 329 634 295T602 247T570 233Q559 233 552 238T543 253T540 275Q540 281 540 289T542 302L573 520H469L442 287L453 266Q448 233 461 206T500 163T558 146Q591 146 624 159T685 201T729 277T746 390Q746 451 725 510T661 616T557 691T415 719Q329
719 258 688T134 603T53 477T24 320Z" />
<glyph unicode="A" horiz-adv-x="711" d="M173 159H543L526 272H190L173 159ZM356 473L461 230L459 194L549 0H711L356 741L1 0H162L254 200L251 232L356 473Z" />
<glyph unicode="B" horiz-adv-x="631" d="M183 355H309Q379 355 432 374T515 432T545 523Q545 583 515 622T432 680T309 700H76V0H324Q402 0 461 21T552 86T585 199Q585 251 564 288T505 348T422 383T324 394H183V316H311Q338 316 361 311T401 293T428 262T438
217Q438 181 422 158T376 125T311 114H219V586H296Q343 586 370 565T398 504Q398 478 386 459T350 430T296 420H183V355Z" />
<glyph unicode="C" horiz-adv-x="696" d="M191 350Q191 420 222 471T305 549T416 577Q466 577 505 564T575 529T630 481V642Q587 676 537 695T409 714Q329 714 261 688T142 613T64 498T36 350Q36 269 63 203T141 87T260 12T409 -14Q486 -14 536 5T630 58V219Q607
193 576 171T505 136T416 123Q356 123 305 150T223 229T191 350Z" />
<glyph unicode="D" horiz-adv-x="716" d="M76 700V0H222V700H76ZM314 0Q424 0 506 43T635 164T681 350Q681 457 635 535T507 657T314 700H168V570H309Q355 570 396 558T468 518T516 450T534 350Q534 292 517 251T468 182T396 143T309 130H168V0H314Z" />
<glyph unicode="E" horiz-adv-x="586" d="M168 0H521V121H168V0ZM168 579H521V700H168V579ZM168 312H501V431H168V312ZM76 700V0H214V700H76Z" />
<glyph unicode="F" horiz-adv-x="536" d="M168 575H481V700H168V575ZM168 299H471V418H168V299ZM76 700V0H214V700H76Z" />
<glyph unicode="G" horiz-adv-x="802" d="M416 260H617Q608 228 591 201T550 153T491 121T414 109Q349 109 298 139T216 223T186 350Q186 423 216 476T299 557T414 586Q481 586 527 558T600 483L722 554Q690 603 646 638T544 694T414 714Q333 714 264 688T144
614T65 499T36 350Q36 269 63 201T141 84T260 8T410 -19Q496 -19 563 12T675 97T742 223T761 374H416V260Z" />
<glyph unicode="H" horiz-adv-x="764" d="M123 308H637V437H123V308ZM546 700V0H689V700H546ZM76 700V0H219V700H76Z" />
<glyph unicode="I" horiz-adv-x="296" d="M76 700V0H221V700H76Z" />
<glyph unicode="J" horiz-adv-x="302" d="M-70 -76L-147 -179Q-131 -191 -106 -203T-48 -224T20 -233Q63 -233 100 -223T166 -192T210 -137T226 -56V700H76V-26Q76 -72 55 -91T10 -110Q-14 -110 -35 -101T-70 -76Z" />
<glyph unicode="K" horiz-adv-x="658" d="M76 700V0H223V700H76ZM472 700L181 368L483 0H657L352 372L642 700H472Z" />
<glyph unicode="L" horiz-adv-x="504" d="M76 700V0H498V125H219V700H76Z" />
<glyph unicode="M" horiz-adv-x="866" d="M230 393L433 65L636 393L681 0H830L726 735L433 283L140 735L36 0H185L230 393Z" />
<glyph unicode="N" horiz-adv-x="788" d="M574 700V266L76 735V0H214V434L712 -35V700H574Z" />
<glyph unicode="O" horiz-adv-x="811" d="M187 350Q187 417 215 469T292 551T406 581Q472 581 521 551T597 469T624 350Q624 283 597 231T520 149T406 119Q341 119 292 149T215 231T187 350ZM36 350Q36 271 63 204T140 86T257 9T406 -19Q487 -19 554 8T671 86T748
203T776 350Q776 430 749 496T671 612T553 687T406 714Q327 714 260 688T142 612T64 497T36 350Z" />
<glyph unicode="P" horiz-adv-x="599" d="M76 700V0H219V700H76ZM163 579H302Q359 579 392 554T425 477Q425 427 392 401T302 375H163V254H302Q385 254 443 281T533 358T564 477Q564 546 533 596T444 673T302 700H163V579Z" />
<glyph unicode="Q" horiz-adv-x="841" d="M187 350Q187 417 215 469T293 551T408 581Q478 581 529 548T609 460T637 337Q637 270 609 219T531 140T416 111Q352 111 300 141T218 225T187 350ZM36 350Q36 271 63 204T141 86T260 9T408 -19Q489 -19 556 8T672 86T749
203T776 350Q776 430 749 496T672 612T555 687T408 714Q329 714 262 688T143 612T64 497T36 350ZM364 300L685 -9H844L519 300H364Z" />
<glyph unicode="R" horiz-adv-x="620" d="M235 326L445 0H614L386 326H235ZM76 700V0H219V700H76ZM163 578H302Q340 578 367 566T410 530T425 473Q425 440 410 417T368 381T302 368H163V254H311Q394 254 452 282T541 360T572 477Q572 544 541 594T452 672T311
700H163V578Z" />
<glyph unicode="S" horiz-adv-x="601" d="M137 235L35 163Q58 114 99 72T195 6T315 -19Q363 -19 406 -5T485 37T540 105T560 196Q560 241 546 275T506 335T449 379T383 409Q330 427 295 444T243 481T226 527Q226 553 247 572T310 592Q342 592 367 580T411 547T445
501L557 563Q539 600 507 634T426 691T310 714Q245 714 193 691T110 624T79 520Q79 470 98 435T146 375T207 335T265 310Q312 292 344 277T393 241T410 188Q410 150 383 128T313 106Q276 106 244 122T186 167T137 235Z" />
<glyph unicode="T" horiz-adv-x="531" d="M6 571H194V0H337V571H526V700H6V571Z" />
<glyph unicode="U" horiz-adv-x="677" d="M71 700V230Q71 168 91 121T147 42T232 -6T339 -23Q396 -23 445 -7T530 42T587 121T607 230V700H464V239Q464 179 433 143T339 106Q277 106 246 142T214 239V700H71Z" />
<glyph unicode="V" horiz-adv-x="711" d="M356 244L166 700H1L356 -41L711 700H545L356 244Z" />
<glyph unicode="W" horiz-adv-x="1041" d="M718 265L521 735L326 265L174 700H6L300 -39L521 421L741 -39L1036 700H868L718 265Z" />
<glyph unicode="X" horiz-adv-x="645" d="M449 700L326 480L206 700H31L242 361L6 0H181L325 251L464 0H639L409 361L624 700H449Z" />
<glyph unicode="Y" horiz-adv-x="629" d="M465 700L314 418L164 700H1L242 289V0H387V290L628 700H465Z" />
<glyph unicode="Z" horiz-adv-x="596" d="M50 571H350L11 0H550V125H238L581 700H50V571Z" />
<glyph unicode="[" horiz-adv-x="343" d="M222 666H323V780H94V-220H323V-106H222V666Z" />
<glyph unicode="\" horiz-adv-x="536" d="M15 700L394 0H521L143 700H15Z" />
<glyph unicode="]" horiz-adv-x="343" d="M121 -106H20V-220H249V780H20V666H121V-106Z" />
<glyph unicode="^" horiz-adv-x="510" d="M255 593L344 451H462L292 710H218L48 451H166L255 593Z" />
<glyph unicode="_" horiz-adv-x="521" d="M0 -147H521V-64H0V-147Z" />
<glyph unicode="`" horiz-adv-x="375" d="M60 656L240 506L313 544L163 704L60 656Z" />
<glyph unicode="a" horiz-adv-x="521" d="M156 143Q156 163 165 176T193 197T242 205Q279 205 312 195T373 165V225Q363 237 340 250T284 272T206 281Q120 281 73 242T26 136Q26 89 48 57T108 7T188 -10Q230 -10 268 5T331 50T356 124L340 184Q340 151 325 128T286
92T232 79Q211 79 194 86T166 108T156 143ZM106 330Q116 337 137 347T187 364T248 371Q269 371 286 367T315 354T334 332T340 299V0H465V326Q465 373 439 405T367 455T262 472Q198 472 146 455T58 418L106 330Z" />
<glyph unicode="b" horiz-adv-x="602" d="M191 780H61V0H191V780ZM569 230Q569 307 538 360T457 442T348 470Q291 470 247 441T176 359T150 230Q150 156 176 102T246 19T348 -10Q406 -10 456 18T538 100T569 230ZM435 230Q435 189 418 159T373 113T310 97Q281
97 254 112T209 158T191 230Q191 272 208 302T253 347T310 363Q344 363 372 347T418 301T435 230Z" />
<glyph unicode="c" horiz-adv-x="489" d="M162 230Q162 269 180 299T228 346T296 364Q324 364 352 355T403 330T439 291V424Q415 445 377 457T287 470Q214 470 156 440T64 356T30 230Q30 159 63 105T155 20T287 -10Q338 -10 376 2T439 37V170Q427 148 405 132T354
106T296 96Q259 96 229 113T180 160T162 230Z" />
<glyph unicode="d" horiz-adv-x="602" d="M411 780V0H541V780H411ZM33 230Q33 154 64 100T146 18T254 -10Q312 -10 356 19T426 102T452 230Q452 305 427 358T357 441T254 470Q197 470 146 442T64 361T33 230ZM167 230Q167 271 184 301T230 347T292 363Q321 363
348 348T393 302T411 230Q411 188 394 158T349 113T292 97Q259 97 230 113T184 159T167 230Z" />
<glyph unicode="e" horiz-adv-x="555" d="M281 -10Q364 -10 423 22T519 120L406 155Q386 122 356 106T282 89Q244 89 217 106T177 155T163 233Q164 281 177 313T216 362T280 379Q311 379 334 365T369 327T382 269Q382 262 379 252T371 235L406 281H107V201H519Q520
207 520 217T521 236Q521 310 493 362T412 442T282 470Q206 470 150 441T64 358T33 230Q33 157 63 104T150 20T281 -10Z" />
<glyph unicode="f" horiz-adv-x="326" d="M25 460V351H313V460H25ZM299 650L354 747Q345 757 330 768T292 786T239 794Q187 794 151 775T97 719T79 630V0H204V601Q204 627 210 644T226 668T252 676Q264 676 276 671T299 650Z" />
<glyph unicode="g" horiz-adv-x="598" d="M42 -32Q46 -92 74 -138T157 -210T291 -236Q357 -236 413 -211T502 -130T536 10V460H411V10Q411 -37 394 -68T348 -114T287 -129Q252 -129 226 -117T185 -84T169 -32H42ZM33 234Q33 158 64 106T146 26T254 -1Q312 -1 356
26T426 107T452 234Q452 309 427 361T357 442T254 470Q197 470 146 443T64 364T33 234ZM167 234Q167 276 184 304T230 348T292 363Q314 363 335 355T373 330T401 290T411 234Q411 192 394 164T349 121T292 106Q259 106 230 121T184 164T167 234Z" />
<glyph unicode="h" horiz-adv-x="555" d="M194 780H64V0H194V780ZM361 280V0H491V299Q491 356 474 395T422 455T333 475Q279 475 242 449T187 379T168 280H194Q194 309 205 330T237 362T285 374Q326 374 343 350T361 280Z" />
<glyph unicode="i" horiz-adv-x="271" d="M58 638Q58 607 81 586T136 565Q168 565 190 586T213 638Q213 670 191 690T136 711Q104 711 81 691T58 638ZM72 460V0H198V460H72Z" />
<glyph unicode="j" horiz-adv-x="265" d="M50 638Q50 607 73 586T128 565Q160 565 182 586T205 638Q205 670 183 690T128 711Q96 711 73 691T50 638ZM-28 -89L-84 -186Q-72 -197 -57 -208T-20 -226T31 -233Q84 -233 120 -213T174 -155T192 -69V460H67V-39Q67 -65
62 -81T46 -106T19 -114Q4 -114 -7 -107T-28 -89Z" />
<glyph unicode="k" horiz-adv-x="534" d="M61 780V0H186V780H61ZM355 460L157 270L376 0H530L312 270L510 460H355Z" />
<glyph unicode="l" horiz-adv-x="258" d="M64 780V0H194V780H64Z" />
<glyph unicode="m" horiz-adv-x="808" d="M744 294Q744 350 729 389T681 449T598 470Q551 470 515 450T453 391Q438 430 405 450T321 470Q275 470 242 450T189 392V460H64V0H189V280Q189 310 199 331T227 363T269 374Q305 374 321 351T337 280V0H466V280Q466 310
476 331T504 363T546 374Q582 374 598 351T614 280V0H744V294Z" />
<glyph unicode="n" horiz-adv-x="559" d="M361 280V0H495V294Q495 377 455 423T333 470Q284 470 250 450T194 390V460H64V0H194V280Q194 309 205 330T237 362T285 374Q325 374 343 350T361 280Z" />
<glyph unicode="o" horiz-adv-x="576" d="M33 230Q33 159 66 105T157 20T288 -10Q361 -10 418 20T509 104T543 230Q543 302 510 356T419 440T288 470Q215 470 158 440T67 356T33 230ZM165 230Q165 269 181 299T226 345T288 361Q322 361 350 345T394 299T411 230Q411
191 395 162T350 116T288 99Q254 99 226 115T182 161T165 230Z" />
<glyph unicode="p" horiz-adv-x="602" d="M191 -220V460H61V-220H191ZM569 230Q569 309 538 363T457 446T348 474Q289 474 246 444T179 360T155 230Q155 156 178 101T245 16T348 -14Q406 -14 456 14T538 97T569 230ZM435 230Q435 189 418 160T373 116T310 101Q281
101 254 115T209 159T191 230Q191 272 208 301T253 344T310 359Q344 359 372 344T418 300T435 230Z" />
<glyph unicode="q" horiz-adv-x="602" d="M411 -220H541V460H411V-220ZM33 230Q33 152 64 97T146 14T254 -14Q315 -14 358 16T424 101T447 230Q447 305 424 359T358 444T254 474Q197 474 146 446T64 364T33 230ZM167 230Q167 271 184 300T230 344T292 359Q321
359 348 345T393 301T411 230Q411 188 394 159T349 116T292 101Q259 101 230 116T184 160T167 230Z" />
<glyph unicode="r" horiz-adv-x="390" d="M191 460H64V0H191V460ZM326 325L385 435Q371 453 349 462T301 471Q265 471 231 446T176 378T155 280L191 244Q191 277 199 300T225 337T266 350Q286 350 299 344T326 325Z" />
<glyph unicode="s" horiz-adv-x="439" d="M87 159L24 78Q50 53 82 32T155 -3T245 -16Q324 -16 369 22T414 130Q414 172 395 198T345 241T276 273Q246 286 223 295T187 315T174 342Q174 359 186 367T221 376Q254 376 288 359T348 315L405 395Q383 417 354 433T291
460T218 470Q172 470 135 456T75 413T53 343Q53 300 72 273T122 229T184 200Q218 189 240 179T273 157T285 126Q285 106 271 95T231 83Q211 83 189 91T141 115T87 159Z" />
<glyph unicode="t" horiz-adv-x="294" d="M5 460V351H289V460H5ZM84 620V0H209V620H84Z" />
<glyph unicode="u" horiz-adv-x="559" d="M198 180V460H64V166Q64 84 104 37T227 -10Q276 -10 310 10T366 70V0H495V460H366V180Q366 151 355 130T323 98T274 86Q234 86 216 110T198 180Z" />
<glyph unicode="v" horiz-adv-x="500" d="M-2 460L250 -48L502 460H363L250 183L137 460H-2Z" />
<glyph unicode="w" horiz-adv-x="736" d="M-4 460L222 -31L366 262L514 -31L739 460H602L500 204L365 495L235 205L134 460H-4Z" />
<glyph unicode="x" horiz-adv-x="497" d="M344 460L250 327L158 460H10L182 237L0 0H148L250 146L354 0H497L317 237L487 460H344Z" />
<glyph unicode="y" horiz-adv-x="496" d="M502 460H367L222 96L286 94L138 460H-6L185 46L69 -220H202L502 460Z" />
<glyph unicode="z" horiz-adv-x="503" d="M270 342L15 0H459V118H241L488 460H54V342H270Z" />
<glyph unicode="{" horiz-adv-x="371" d="M238 626Q238 646 251 661T286 676H321V780H240Q205 780 173 766T119 721T98 640V447Q98 390 85 368T41 337V243Q71 236 84 213T98 133V-60Q98 -109 119 -140T172 -185T240 -200H321V-96H286Q264 -96 251 -81T238 -46V90Q238
123 235 160T220 228T180 280T104 300V280Q153 280 180 300T219 351T235 420T238 490V626Z" />
<glyph unicode="|" horiz-adv-x="328" d="M100 785V-215H228V785H100Z" />
<glyph unicode="}" horiz-adv-x="371" d="M138 -46Q138 -65 126 -80T90 -96H55V-200H137Q171 -200 204 -186T257 -140T278 -60V133Q278 190 292 213T335 243V337Q306 345 292 367T278 447V640Q278 690 258 720T204 765T137 780H55V676H90Q113 676 125 661T138
626V490Q138 457 141 420T156 352T196 300T273 280V300Q223 300 196 280T157 229T141 160T138 90V-46Z" />
<glyph unicode="~" horiz-adv-x="575" d="M152 167Q150 173 149 179T147 194Q147 213 157 227T193 242Q206 242 219 238T247 227T277 208Q312 184 341 172T398 159Q435 159 460 172T505 210Q521 230 526 253T531 299Q531 307 530 314T527 327L419 332Q422 325
424 317T426 300Q426 281 418 270T390 258Q377 258 360 266T318 291Q295 307 275 318T236 334T194 340Q150 340 122 325T73 284Q56 263 50 241T44 196Q44 183 47 172L152 167Z" />
<glyph unicode="&#xa0;" horiz-adv-x="300" />
<glyph unicode="&#xa1;" horiz-adv-x="330" d="M245 -234L216 244H114L85 -234H245ZM247 411Q247 444 224 465T165 487Q130 487 107 466T83 411Q83 378 106 356T165 334Q201 334 224 356T247 411Z" />
<glyph unicode="&#xa2;" horiz-adv-x="580" d="M250 38L244 -112H353L346 38H250ZM192 230Q192 269 210 299T258 347T325 364Q375 364 412 342T468 290V424Q444 445 404 457T317 470Q243 470 185 440T94 356T60 230Q60 159 93 105T185 20T317 -10Q364 -10 404
2T468 36V170Q449 140 412 118T325 96Q289 96 259 112T210 158T192 230ZM244 578L250 428H346L353 578H244Z" />
<glyph unicode="&#xa3;" horiz-adv-x="601" d="M67 370V278H440V370H67ZM439 470L555 514Q553 546 538 580T493 643T422 691T325 710Q262 710 210 688T126 623T95 520Q95 483 105 456T130 408T161 367T187 325T198 275Q198 226 183 183T136 95T55 0H532V121H180L143
50Q171 58 202 77T261 126T306 192T324 268Q324 302 315 327T292 372T264 411T240 452T231 503Q231 534 245 554T281 583T330 592Q359 592 379 582T412 554T431 515T439 470Z" />
<glyph unicode="&#xa4;" horiz-adv-x="578" d="M28 503L126 406L183 463L86 562L28 503ZM86 38L183 137L126 194L28 97L86 38ZM452 406L550 503L492 562L394 463L452 406ZM394 137L492 38L550 97L452 194L394 137ZM51 300Q51 231 82 177T168 91T289 60Q357 60
410 91T495 176T527 300Q527 370 496 424T411 509T289 540Q222 540 168 509T83 424T51 300ZM171 300Q171 336 186 364T228 407T289 422Q323 422 350 407T392 364T408 300Q408 264 393 236T350 193T289 178Q255 178 228 193T186 236T171 300Z" />
<glyph unicode="&#xa5;" horiz-adv-x="641" d="M45 273H592V365H45V273ZM45 123H592V215H45V123ZM471 700L320 418L170 700H6L248 290V0H394V293L634 700H471Z" />
<glyph unicode="&#xa6;" horiz-adv-x="328" d="M100 695V438H228V695H100ZM228 262H100V5H228V262Z" />
<glyph unicode="&#xa7;" horiz-adv-x="524" d="M372 558L441 639Q429 662 401 680T337 708T261 719Q219 719 179 704T113 658T86 582Q86 551 97 529T127 490T167 462T212 442Q239 432 265 421T310 393T328 350Q328 330 317 313T289 285T250 272V232Q289 232 325
240T389 265T432 310T448 376Q448 412 430 439T382 485T315 515Q295 522 276 528T243 540T220 556T211 575Q211 587 217 594T237 605T268 610Q285 610 304 604T341 587T372 558ZM118 170L48 90Q65 60 96 35T169 -4T262 -19Q299 -19 333 -10T393 17T435 63T451 130Q451
168 433 195T386 242T324 275Q305 283 283 290T242 306T211 331T199 369Q199 390 209 403T238 427T280 445V480Q237 480 201 471T136 444T93 401T77 342Q77 304 98 276T152 230T221 201Q249 193 271 184T307 163T321 132Q321 119 314 110T293 96T258 91Q237 91
211 100T161 126T118 170Z" />
<glyph unicode="&#xa8;" horiz-adv-x="498" d="M286 641Q286 609 309 588T364 567Q397 567 419 588T442 641Q442 673 420 693T364 714Q332 714 309 694T286 641ZM56 641Q56 609 79 588T134 567Q167 567 189 588T212 641Q212 673 190 693T134 714Q102 714 79 694T56 641Z" />
<glyph unicode="&#xa9;" horiz-adv-x="800" d="M273 350Q273 392 291 422T340 469T409 486Q453 486 484 470T537 429V525Q511 546 481 557T404 569Q340 569 290 541T210 464T180 350Q180 286 209 237T289 159T404 131Q450 131 480 142T537 175V271Q516 247 485
231T409 214Q371 214 340 230T291 277T273 350ZM95 350Q95 417 118 473T182 572T279 637T400 660Q465 660 520 637T617 572T682 474T705 350Q705 283 682 227T618 128T521 63T400 40Q335 40 280 63T183 128T118 226T95 350ZM40 350Q40 272 67 206T143 92T258 17T400
-10Q477 -10 542 16T656 91T732 206T760 350Q760 428 733 494T657 608T543 683T400 710Q324 710 258 684T144 609T68 494T40 350Z" />
<glyph unicode="&#xaa;" horiz-adv-x="260" d="M84 531Q84 547 96 558T130 569Q150 569 165 564T194 548V580Q187 588 166 597T117 606Q77 606 48 585T18 529Q18 494 42 475T101 455Q137 455 161 473T186 525L178 552Q178 523 161 512T122 500Q102 500 93 509T84
531ZM63 631Q71 637 90 645T135 653Q154 653 166 644T178 618V460H240V632Q240 667 212 686T139 705Q108 705 83 696T39 678L63 631Z" />
<glyph unicode="&#xab;" horiz-adv-x="531" d="M333 259L483 445L403 503L221 255L403 7L483 65L333 259ZM143 259L293 445L213 503L31 255L213 7L293 65L143 259Z" />
<glyph unicode="&#xac;" horiz-adv-x="641" d="M65 281H480V175H576V394H65V281Z" />
<glyph unicode="&#xad;" horiz-adv-x="210" d="M5 200H205V275H5V200Z" />
<glyph unicode="&#xae;" horiz-adv-x="800" d="M368 337L477 150H579L450 337H368ZM260 570V150H346V570H260ZM312 497H396Q430 497 450 482T470 436Q470 406 450 391T396 375H312V307H401Q475 307 516 344T558 441Q558 497 517 533T401 570H312V497ZM95 350Q95
417 118 473T182 572T279 637T400 660Q465 660 520 637T617 572T682 474T705 350Q705 283 682 227T618 128T521 63T400 40Q335 40 280 63T183 128T118 226T95 350ZM40 350Q40 272 67 206T143 92T258 17T400 -10Q477 -10 542 16T656 91T732 206T760 350Q760 428
733 494T657 608T543 683T400 710Q324 710 258 684T144 609T68 494T40 350Z" />
<glyph unicode="&#xaf;" horiz-adv-x="525" d="M80 581H445V694H80V581Z" />
<glyph unicode="&#xb0;" horiz-adv-x="291" d="M18 598Q18 545 54 511T145 476Q200 476 236 510T273 598Q273 652 237 686T145 720Q90 720 54 686T18 598ZM81 598Q81 627 99 645T145 664Q173 664 191 646T209 598Q209 568 191 550T145 532Q117 532 99 550T81 598Z" />
<glyph unicode="&#xb1;" horiz-adv-x="628" d="M65 4H563V119H65V4ZM65 336H563V455H65V336ZM248 620V171H380V620H248Z" />
<glyph unicode="&#xb2;" horiz-adv-x="389" d="M25 282H362V361H187L296 463Q322 488 338 516T355 577Q355 609 339 639T290 690T206 710Q156 710 120 689T65 632T46 550H131Q131 589 151 612T204 635Q226 635 239 627T260 605T267 575Q267 550 254 529T216 482L25 282Z" />
<glyph unicode="&#xb3;" horiz-adv-x="348" d="M150 484Q197 484 234 497T293 534T315 592Q315 639 279 673T177 707Q115 707 77 672T38 583H118Q118 607 135 622T177 637Q204 637 217 624T230 588Q230 571 220 557T192 535T150 526V484ZM173 271Q244 271 285
305T327 394Q327 436 304 462T241 500T150 513V467Q180 467 200 460T231 438T242 402Q242 373 224 358T176 343Q147 343 126 359T105 406H20Q20 371 38 340T91 290T173 271Z" />
<glyph unicode="&#xb4;" horiz-adv-x="375" d="M313 656L210 704L60 544L133 506L313 656Z" />
<glyph unicode="&#xb5;" horiz-adv-x="559" d="M198 460H64V-320H189V13Q208 2 224 -2T259 -6Q293 -6 320 11T366 56V0H495V460H366V197Q366 168 355 147T323 115T274 103Q234 103 216 127T198 197V460Z" />
<glyph unicode="&#xb6;" horiz-adv-x="642" d="M288 270V-220H401V616H469V-220H582V700H288Q226 700 174 675T91 603T60 485Q60 416 91 368T174 295T288 270Z" />
<glyph unicode="&#xb7;" horiz-adv-x="315" d="M76 259Q76 227 99 203T158 179Q194 179 217 203T240 259Q240 293 217 316T158 340Q123 340 100 317T76 259Z" />
<glyph unicode="&#xb8;" horiz-adv-x="380" d="M187 68L101 -119Q124 -108 146 -105T175 -102Q199 -102 215 -109T232 -135Q232 -153 219 -162T179 -172Q163 -172 144 -166T108 -147L66 -207Q97 -229 126 -237T193 -246Q223 -246 251 -234T298 -199T317 -141Q317
-111 303 -91T270 -61T231 -51Q223 -51 216 -51T203 -54L282 65L187 68Z" />
<glyph unicode="&#xb9;" horiz-adv-x="479" d="M139 584L240 611V274H323V701L139 662V584Z" />
<glyph unicode="&#xba;" horiz-adv-x="278" d="M19 580Q19 527 55 494T146 460Q201 460 237 493T274 580Q274 634 238 667T146 700Q91 700 55 667T19 580ZM85 580Q85 610 102 627T146 645Q172 645 190 628T208 580Q208 550 190 533T146 515Q120 515 103 532T85 580Z" />
<glyph unicode="&#xbb;" horiz-adv-x="531" d="M199 251L49 65L129 7L310 255L129 503L49 445L199 251ZM389 251L239 65L319 7L500 255L319 503L239 445L389 251Z" />
<glyph unicode="&#xbc;" horiz-adv-x="801" d="M627 700L107 0H193L713 700H627ZM26 584L126 611V274H210V701L26 662V584ZM404 78H769V151H669L659 142H474L404 78ZM491 98L622 284V106L615 100V0H703V420H645L404 78L491 98Z" />
<glyph unicode="&#xbd;" horiz-adv-x="870" d="M627 700L107 0H193L713 700H627ZM26 584L126 611V274H210V701L26 662V584ZM502 2H839V81H664L772 183Q799 208 815 236T831 297Q831 329 815 359T766 410T683 430Q632 430 597 409T542 352T523 270H607Q607 309
628 332T681 355Q703 355 716 347T736 325T743 295Q743 270 730 249T692 202L502 2Z" />
<glyph unicode="&#xbe;" horiz-adv-x="861" d="M691 700L171 0H258L778 700H691ZM157 484Q205 484 242 497T300 534T322 592Q322 639 286 673T185 707Q122 707 84 672T45 583H125Q125 607 142 622T184 637Q211 637 224 624T237 588Q237 571 227 557T200 535T157
526V484ZM180 271Q251 271 292 305T334 394Q334 436 311 462T248 500T157 513V467Q187 467 207 460T238 438T249 402Q249 373 231 358T183 343Q154 343 133 359T112 406H27Q27 371 45 340T98 290T180 271ZM465 78H830V151H729L719 142H535L465 78ZM552 98L683 284V106L675
100V0H764V420H705L465 78L552 98Z" />
<glyph unicode="&#xbf;" horiz-adv-x="605" d="M186 200Q186 229 206 259T267 310T367 331H398L378 509H275L269 413Q216 407 167 379T87 306T56 200Q56 150 75 111T129 43T207 -1T299 -16Q359 -16 404 -1T486 42T554 110L463 181Q436 140 396 118T309 95Q271
95 244 107T201 143T186 200ZM407 647Q407 677 384 699T325 721Q290 721 267 699T243 647Q243 617 266 595T325 573Q361 573 384 595T407 647Z" />
<glyph unicode="&#xc0;" horiz-adv-x="711" d="M173 159H543L526 272H190L173 159ZM356 473L461 230L459 194L549 0H711L356 741L1 0H162L254 200L251 232L356 473ZM204 951L384 801L457 840L307 1000L204 951Z" />
<glyph unicode="&#xc1;" horiz-adv-x="711" d="M173 159H543L526 272H190L173 159ZM356 473L461 230L459 194L549 0H711L356 741L1 0H162L254 200L251 232L356 473ZM505 951L402 1000L252 840L325 801L505 951Z" />
<glyph unicode="&#xc2;" horiz-adv-x="711" d="M173 159H543L526 272H190L173 159ZM356 473L461 230L459 194L549 0H711L356 741L1 0H162L254 200L251 232L356 473ZM356 867L453 779L541 840L356 980L170 840L259 779L356 867Z" />
<glyph unicode="&#xc3;" horiz-adv-x="711" d="M173 159H543L526 272H190L173 159ZM356 473L461 230L459 194L549 0H711L356 741L1 0H162L254 200L251 232L356 473ZM169 847L235 793Q235 801 239 813T253 834T283 844Q307 844 327 831T368 805T417 792Q446 792
471 805T515 837T542 874L479 938Q464 914 449 901T417 887Q396 887 382 894T355 912T325 929T284 937Q256 937 231 925T190 892T169 847Z" />
<glyph unicode="&#xc4;" horiz-adv-x="711" d="M173 159H543L526 272H190L173 159ZM356 473L461 230L459 194L549 0H711L356 741L1 0H162L254 200L251 232L356 473ZM406 836Q406 805 429 784T484 763Q516 763 538 784T561 836Q561 868 539 889T484 910Q452 910
429 889T406 836ZM146 841Q146 809 169 788T224 767Q256 767 278 788T301 841Q301 873 279 893T224 914Q192 914 169 894T146 841Z" />
<glyph unicode="&#xc5;" horiz-adv-x="711" d="M173 159H543L526 272H190L173 159ZM356 473L461 230L459 194L549 0H711L356 741L1 0H162L254 200L251 232L356 473ZM238 800Q238 750 272 720T355 689Q403 689 438 719T474 800Q474 849 439 879T355 910Q307 910
273 880T238 800ZM308 800Q308 823 322 836T355 849Q374 849 388 836T403 800Q403 776 389 764T355 751Q336 751 322 763T308 800Z" />
<glyph unicode="&#xc6;" horiz-adv-x="1046" d="M253 169H558V301H258L253 169ZM437 700L11 0H188L570 660L437 700ZM601 0H976V121H601V0ZM609 579H976V700H437L609 579ZM601 312H956V431H601V312ZM531 700V0H682V700H531Z" />
<glyph unicode="&#xc7;" horiz-adv-x="696" d="M191 350Q191 420 222 471T305 549T416 577Q466 577 505 564T575 529T630 481V642Q587 676 537 695T409 714Q329 714 261 688T142 613T64 498T36 350Q36 269 63 203T141 87T260 12T409 -14Q486 -14 536 5T630 58V219Q607
193 576 171T505 136T416 123Q356 123 305 150T223 229T191 350ZM365 52L278 -135Q301 -124 323 -121T352 -118Q377 -118 393 -125T410 -151Q410 -169 397 -178T357 -188Q341 -188 322 -182T285 -163L243 -223Q274 -245 303 -253T370 -262Q401 -262 429 -250T475
-215T494 -157Q494 -127 481 -107T447 -77T408 -67Q401 -67 394 -67T380 -70L459 49L365 52Z" />
<glyph unicode="&#xc8;" horiz-adv-x="586" d="M168 0H521V121H168V0ZM168 579H521V700H168V579ZM168 312H501V431H168V312ZM76 700V0H214V700H76ZM147 929L327 779L399 817L249 977L147 929Z" />
<glyph unicode="&#xc9;" horiz-adv-x="586" d="M168 0H521V121H168V0ZM168 579H521V700H168V579ZM168 312H501V431H168V312ZM76 700V0H214V700H76ZM448 929L345 977L195 817L268 779L448 929Z" />
<glyph unicode="&#xca;" horiz-adv-x="586" d="M168 0H521V121H168V0ZM168 579H521V700H168V579ZM168 312H501V431H168V312ZM76 700V0H214V700H76ZM304 863L401 774L489 836L304 976L118 836L207 774L304 863Z" />
<glyph unicode="&#xcb;" horiz-adv-x="586" d="M168 0H521V121H168V0ZM168 579H521V700H168V579ZM168 312H501V431H168V312ZM76 700V0H214V700H76ZM341 859Q341 828 364 807T419 786Q452 786 474 807T497 859Q497 891 475 912T419 933Q387 933 364 912T341 859ZM111
859Q111 828 134 807T189 786Q222 786 244 807T267 859Q267 891 245 912T189 933Q157 933 134 912T111 859Z" />
<glyph unicode="&#xcc;" horiz-adv-x="296" d="M76 700V0H221V700H76ZM-8 929L172 779L245 817L95 977L-8 929Z" />
<glyph unicode="&#xcd;" horiz-adv-x="296" d="M76 700V0H221V700H76ZM293 929L191 977L41 817L113 779L293 929Z" />
<glyph unicode="&#xce;" horiz-adv-x="296" d="M76 700V0H221V700H76ZM148 863L245 774L334 836L148 976L-38 836L51 774L148 863Z" />
<glyph unicode="&#xcf;" horiz-adv-x="296" d="M76 700V0H221V700H76ZM186 848Q186 816 208 795T263 774Q296 774 318 795T341 848Q341 880 319 900T263 921Q231 921 209 901T186 848ZM-44 848Q-44 816 -22 795T33 774Q66 774 88 795T111 848Q111 880 89 900T33
921Q1 921 -21 901T-44 848Z" />
<glyph unicode="&#xd0;" horiz-adv-x="716" d="M5 305H340V397H5V305ZM76 700V0H222V700H76ZM314 0Q424 0 506 43T635 164T681 350Q681 457 635 535T507 657T314 700H168V570H309Q355 570 396 558T468 518T516 450T534 350Q534 292 517 251T468 182T396 143T309
130H168V0H314Z" />
<glyph unicode="&#xd1;" horiz-adv-x="788" d="M574 700V266L76 735V0H214V434L712 -35V700H574ZM185 820L251 766Q251 774 254 786T269 807T299 817Q323 817 342 805T384 779T433 766Q462 766 487 778T531 810T558 847L495 912Q480 888 465 874T432 860Q411 860
397 868T370 886T341 903T300 911Q271 911 247 899T206 866T185 820Z" />
<glyph unicode="&#xd2;" horiz-adv-x="811" d="M187 350Q187 417 215 469T292 551T406 581Q472 581 521 551T597 469T624 350Q624 283 597 231T520 149T406 119Q341 119 292 149T215 231T187 350ZM36 350Q36 271 63 204T140 86T257 9T406 -19Q487 -19 554 8T671
86T748 203T776 350Q776 430 749 496T671 612T553 687T406 714Q327 714 260 688T142 612T64 497T36 350ZM266 929L446 779L519 817L369 977L266 929Z" />
<glyph unicode="&#xd3;" horiz-adv-x="811" d="M187 350Q187 417 215 469T292 551T406 581Q472 581 521 551T597 469T624 350Q624 283 597 231T520 149T406 119Q341 119 292 149T215 231T187 350ZM36 350Q36 271 63 204T140 86T257 9T406 -19Q487 -19 554 8T671
86T748 203T776 350Q776 430 749 496T671 612T553 687T406 714Q327 714 260 688T142 612T64 497T36 350ZM556 929L453 977L303 817L376 779L556 929Z" />
<glyph unicode="&#xd4;" horiz-adv-x="811" d="M187 350Q187 417 215 469T292 551T406 581Q472 581 521 551T597 469T624 350Q624 283 597 231T520 149T406 119Q341 119 292 149T215 231T187 350ZM36 350Q36 271 63 204T140 86T257 9T406 -19Q487 -19 554 8T671
86T748 203T776 350Q776 430 749 496T671 612T553 687T406 714Q327 714 260 688T142 612T64 497T36 350ZM412 863L509 774L598 836L412 976L226 836L315 774L412 863Z" />
<glyph unicode="&#xd5;" horiz-adv-x="811" d="M187 350Q187 417 215 469T292 551T406 581Q472 581 521 551T597 469T624 350Q624 283 597 231T520 149T406 119Q341 119 292 149T215 231T187 350ZM36 350Q36 271 63 204T140 86T257 9T406 -19Q487 -19 554 8T671
86T748 203T776 350Q776 430 749 496T671 612T553 687T406 714Q327 714 260 688T142 612T64 497T36 350ZM224 829L289 775Q289 783 293 795T307 816T337 826Q362 826 381 813T422 787T471 774Q500 774 525 787T569 819T596 856L533 920Q518 896 503 883T471 869Q450
869 436 876T409 894T380 911T338 919Q310 919 286 907T245 874T224 829Z" />
<glyph unicode="&#xd6;" horiz-adv-x="811" d="M187 350Q187 417 215 469T292 551T406 581Q472 581 521 551T597 469T624 350Q624 283 597 231T520 149T406 119Q341 119 292 149T215 231T187 350ZM36 350Q36 271 63 204T140 86T257 9T406 -19Q487 -19 554 8T671
86T748 203T776 350Q776 430 749 496T671 612T553 687T406 714Q327 714 260 688T142 612T64 497T36 350ZM443 848Q443 816 466 795T521 774Q553 774 575 795T598 848Q598 880 576 900T521 921Q489 921 466 901T443 848ZM213 848Q213 816 236 795T291 774Q323 774
345 795T368 848Q368 880 346 900T291 921Q259 921 236 901T213 848Z" />
<glyph unicode="&#xd7;" horiz-adv-x="596" d="M134 9L298 178L462 9L544 91L375 255L544 419L462 501L298 332L134 501L52 419L221 255L52 91L134 9Z" />
<glyph unicode="&#xd8;" horiz-adv-x="790" d="M187 350Q187 418 215 470T292 551T406 581Q471 581 520 552T596 470T624 350Q624 282 597 230T520 149T406 119Q341 119 292 148T215 230T187 350ZM36 350Q36 271 63 204T141 86T258 9T406 -19Q486 -19 553 8T670
86T748 203T776 350Q776 430 749 496T671 612T553 687T406 714Q326 714 259 688T141 612T64 497T36 350ZM694 754L46 -6L113 -54L762 706L694 754Z" />
<glyph unicode="&#xd9;" horiz-adv-x="677" d="M71 700V230Q71 168 91 121T147 42T232 -6T339 -23Q396 -23 445 -7T530 42T587 121T607 230V700H464V239Q464 179 433 143T339 106Q277 106 246 142T214 239V700H71ZM187 924L367 774L440 813L290 973L187 924Z" />
<glyph unicode="&#xda;" horiz-adv-x="677" d="M71 700V230Q71 168 91 121T147 42T232 -6T339 -23Q396 -23 445 -7T530 42T587 121T607 230V700H464V239Q464 179 433 143T339 106Q277 106 246 142T214 239V700H71ZM490 924L387 973L237 813L310 774L490 924Z" />
<glyph unicode="&#xdb;" horiz-adv-x="677" d="M71 700V230Q71 168 91 121T147 42T232 -6T339 -23Q396 -23 445 -7T530 42T587 121T607 230V700H464V239Q464 179 433 143T339 106Q277 106 246 142T214 239V700H71ZM339 863L436 774L524 836L339 976L153 836L242
774L339 863Z" />
<glyph unicode="&#xdc;" horiz-adv-x="677" d="M71 700V230Q71 168 91 121T147 42T232 -6T339 -23Q396 -23 445 -7T530 42T587 121T607 230V700H464V239Q464 179 433 143T339 106Q277 106 246 142T214 239V700H71ZM389 848Q389 816 412 795T467 774Q499 774 521
795T544 848Q544 880 522 900T467 921Q435 921 412 901T389 848ZM133 848Q133 816 156 795T211 774Q243 774 266 795T289 848Q289 880 266 900T211 921Q179 921 156 901T133 848Z" />
<glyph unicode="&#xdd;" horiz-adv-x="629" d="M466 924L363 973L213 813L286 774L466 924ZM465 700L314 418L164 700H1L242 289V0H387V290L628 700H465Z" />
<glyph unicode="&#xde;" horiz-adv-x="593" d="M80 700V0H208V700H80ZM159 456H298Q339 456 368 446T413 412T429 352Q429 316 413 293T368 259T298 248H159V131H298Q381 131 439 157T528 234T559 352Q559 421 528 470T439 546T298 573H159V456Z" />
<glyph unicode="&#xdf;" horiz-adv-x="591" d="M363 -12Q407 -12 446 3T516 46T564 111T582 190Q582 226 571 251T543 294T505 325T468 349T439 372T427 401Q427 421 436 437T460 470T489 507T512 555T522 621Q522 679 493 718T413 776T299 796Q222 796 167 769T83
692T54 570V-2H184L183 562Q183 604 196 630T234 668T291 680Q319 680 340 672T374 646T387 599Q387 571 378 549T354 509T325 472T301 435T291 391Q291 367 302 349T331 316T369 289T407 262T436 230T448 186Q448 160 437 140T405 108T357 96Q340 96 322 101T288
115T257 135L221 37Q238 23 260 12T309 -6T363 -12Z" />
<glyph unicode="&#xe0;" horiz-adv-x="526" d="M156 137Q156 158 166 173T198 197T249 206Q290 206 320 196T378 165V228Q369 239 347 251T293 272T224 281Q167 281 122 263T52 211T26 127Q26 84 46 54T103 7T190 -10Q238 -10 276 6T338 54T361 130L345 184Q345
146 330 123T289 90T232 80Q208 80 191 86T165 105T156 137ZM115 329Q126 336 147 346T197 363T259 371Q297 371 321 354T345 305V0H470V326Q470 373 444 405T373 455T267 472Q205 472 154 455T68 418L115 329ZM99 682L279 532L352 571L202 731L99 682Z" />
<glyph unicode="&#xe1;" horiz-adv-x="526" d="M156 137Q156 158 166 173T198 197T249 206Q290 206 320 196T378 165V228Q369 239 347 251T293 272T224 281Q167 281 122 263T52 211T26 127Q26 84 46 54T103 7T190 -10Q238 -10 276 6T338 54T361 130L345 184Q345
146 330 123T289 90T232 80Q208 80 191 86T165 105T156 137ZM115 329Q126 336 147 346T197 363T259 371Q297 371 321 354T345 305V0H470V326Q470 373 444 405T373 455T267 472Q205 472 154 455T68 418L115 329ZM436 682L333 731L183 571L256 532L436 682Z" />
<glyph unicode="&#xe2;" horiz-adv-x="526" d="M156 137Q156 158 166 173T198 197T249 206Q290 206 320 196T378 165V228Q369 239 347 251T293 272T224 281Q167 281 122 263T52 211T26 127Q26 84 46 54T103 7T190 -10Q238 -10 276 6T338 54T361 130L345 184Q345
146 330 123T289 90T232 80Q208 80 191 86T165 105T156 137ZM115 329Q126 336 147 346T197 363T259 371Q297 371 321 354T345 305V0H470V326Q470 373 444 405T373 455T267 472Q205 472 154 455T68 418L115 329ZM267 621L364 532L453 594L267 734L82 594L170 532L267
621Z" />
<glyph unicode="&#xe3;" horiz-adv-x="526" d="M156 137Q156 158 166 173T198 197T249 206Q290 206 320 196T378 165V228Q369 239 347 251T293 272T224 281Q167 281 122 263T52 211T26 127Q26 84 46 54T103 7T190 -10Q238 -10 276 6T338 54T361 130L345 184Q345
146 330 123T289 90T232 80Q208 80 191 86T165 105T156 137ZM115 329Q126 336 147 346T197 363T259 371Q297 371 321 354T345 305V0H470V326Q470 373 444 405T373 455T267 472Q205 472 154 455T68 418L115 329ZM81 589L147 535Q147 543 150 555T164 576T195 586Q219
586 238 573T279 547T328 534Q358 534 383 547T427 579T454 616L391 680Q376 656 361 643T328 629Q307 629 293 636T266 654T237 671T196 679Q167 679 143 667T102 634T81 589Z" />
<glyph unicode="&#xe4;" horiz-adv-x="526" d="M156 137Q156 158 166 173T198 197T249 206Q290 206 320 196T378 165V228Q369 239 347 251T293 272T224 281Q167 281 122 263T52 211T26 127Q26 84 46 54T103 7T190 -10Q238 -10 276 6T338 54T361 130L345 184Q345
146 330 123T289 90T232 80Q208 80 191 86T165 105T156 137ZM115 329Q126 336 147 346T197 363T259 371Q297 371 321 354T345 305V0H470V326Q470 373 444 405T373 455T267 472Q205 472 154 455T68 418L115 329ZM305 606Q305 574 327 553T382 532Q415 532 437 553T460
606Q460 638 438 658T382 679Q350 679 328 659T305 606ZM75 606Q75 574 97 553T152 532Q185 532 207 553T230 606Q230 638 208 658T152 679Q120 679 98 659T75 606Z" />
<glyph unicode="&#xe5;" horiz-adv-x="526" d="M156 137Q156 158 166 173T198 197T249 206Q290 206 320 196T378 165V228Q369 239 347 251T293 272T224 281Q167 281 122 263T52 211T26 127Q26 84 46 54T103 7T190 -10Q238 -10 276 6T338 54T361 130L345 184Q345
146 330 123T289 90T232 80Q208 80 191 86T165 105T156 137ZM115 329Q126 336 147 346T197 363T259 371Q297 371 321 354T345 305V0H470V326Q470 373 444 405T373 455T267 472Q205 472 154 455T68 418L115 329ZM149 643Q149 594 184 563T267 532Q315 532 350 563T385
643Q385 693 350 723T267 754Q219 754 184 724T149 643ZM219 643Q219 666 233 679T267 692Q286 692 300 679T315 643Q315 620 301 607T267 594Q248 594 234 607T219 643Z" />
<glyph unicode="&#xe6;" horiz-adv-x="874" d="M214 -10Q295 -10 347 20T413 105H402Q429 46 477 18T599 -10Q682 -10 741 22T838 120L724 155Q706 123 674 106T601 89Q564 89 538 104T498 148T482 220L461 201H837Q838 206 838 216T839 236Q839 308 813 360T737
441T619 470Q574 470 535 457T466 420T415 359H427Q420 416 380 444T267 472Q218 472 169 459T68 418L115 329Q135 341 159 351T210 366T259 371Q301 371 323 350T345 288V226H407Q347 257 307 269T224 281Q165 281 121 262T51 208T26 127Q26 64 76 27T214 -10ZM232
80Q193 80 175 94T156 137Q156 171 179 188T249 206Q280 206 309 199T363 176L345 203L350 128L351 188Q345 134 316 107T232 80ZM482 237Q482 282 496 313T535 362T598 379Q630 379 653 366T689 327T702 266Q702 261 702 258T700 250L723 281H461L482 237Z" />
<glyph unicode="&#xe7;" horiz-adv-x="489" d="M162 230Q162 269 180 299T228 346T296 364Q324 364 352 355T403 330T439 291V424Q415 445 377 457T287 470Q214 470 156 440T64 356T30 230Q30 159 63 105T155 20T287 -10Q338 -10 376 2T439 37V170Q427 148 405
132T354 106T296 96Q259 96 229 113T180 160T162 230ZM244 60L157 -126Q179 -115 201 -112T231 -109Q256 -109 272 -116T289 -143Q289 -161 276 -170T236 -179Q220 -179 201 -174T164 -155L122 -214Q153 -236 182 -244T249 -253Q280 -253 308 -241T354 -206T372
-149Q372 -118 359 -99T326 -69T287 -59Q280 -59 273 -59T259 -61L338 58L244 60Z" />
<glyph unicode="&#xe8;" horiz-adv-x="555" d="M107 201H519Q521 212 521 221T521 236Q521 309 493 361T412 441T282 470Q213 470 161 446T78 379T37 279Q35 267 34 255T33 230Q33 161 62 107T148 21T281 -10Q345 -10 389 6T465 51T519 120L406 155Q394 135 376
120T335 97T282 89Q248 89 221 103T179 149T163 230L165 256Q165 294 180 322T221 364T280 379Q312 379 333 367T366 333T382 281H107V201ZM125 686L305 536L378 575L228 735L125 686Z" />
<glyph unicode="&#xe9;" horiz-adv-x="555" d="M107 201H519Q521 212 521 221T521 236Q521 309 493 361T412 441T282 470Q213 470 161 446T78 379T37 279Q35 267 34 255T33 230Q33 161 62 107T148 21T281 -10Q345 -10 389 6T465 51T519 120L406 155Q394 135 376
120T335 97T282 89Q248 89 221 103T179 149T163 230L165 256Q165 294 180 322T221 364T280 379Q312 379 333 367T366 333T382 281H107V201ZM451 686L348 735L198 575L271 536L451 686Z" />
<glyph unicode="&#xea;" horiz-adv-x="555" d="M107 201H519Q521 212 521 221T521 236Q521 309 493 361T412 441T282 470Q213 470 161 446T78 379T37 279Q35 267 34 255T33 230Q33 161 62 107T148 21T281 -10Q345 -10 389 6T465 51T519 120L406 155Q394 135 376
120T335 97T282 89Q248 89 221 103T179 149T163 230L165 256Q165 294 180 322T221 364T280 379Q312 379 333 367T366 333T382 281H107V201ZM282 619L379 530L468 592L282 732L97 592L185 530L282 619Z" />
<glyph unicode="&#xeb;" horiz-adv-x="555" d="M107 201H519Q521 212 521 221T521 236Q521 309 493 361T412 441T282 470Q213 470 161 446T78 379T37 279Q35 267 34 255T33 230Q33 161 62 107T148 21T281 -10Q345 -10 389 6T465 51T519 120L406 155Q394 135 376
120T335 97T282 89Q248 89 221 103T179 149T163 230L165 256Q165 294 180 322T221 364T280 379Q312 379 333 367T366 333T382 281H107V201ZM320 604Q320 572 342 551T397 530Q430 530 452 551T475 604Q475 636 453 656T397 677Q365 677 343 657T320 604ZM90 604Q90
572 112 551T167 530Q200 530 222 551T245 604Q245 636 223 656T167 677Q135 677 113 657T90 604Z" />
<glyph unicode="&#xec;" horiz-adv-x="271" d="M72 460V0H198V460H72ZM-39 692L141 542L214 580L64 740L-39 692Z" />
<glyph unicode="&#xed;" horiz-adv-x="271" d="M72 460V0H198V460H72ZM304 692L201 740L51 580L124 542L304 692Z" />
<glyph unicode="&#xee;" horiz-adv-x="271" d="M72 460V0H198V460H72ZM135 625L232 536L321 598L135 738L-51 598L38 536L135 625Z" />
<glyph unicode="&#xef;" horiz-adv-x="271" d="M72 460V0H198V460H72ZM173 621Q173 590 196 569T251 548Q283 548 305 569T328 621Q328 653 306 673T251 694Q219 694 196 674T173 621ZM-57 621Q-57 590 -34 569T21 548Q53 548 75 569T98 621Q98 653 76 673T21
694Q-11 694 -34 674T-57 621Z" />
<glyph unicode="&#xf0;" horiz-adv-x="611" d="M303 -14Q378 -14 436 19T528 109T561 241Q561 283 549 329T511 423T448 524T358 632T242 749L149 680Q198 642 239 604T315 525T379 444T430 358L474 357Q376 468 260 468Q198 468 151 439T77 359T50 241Q50 166
82 109T172 19T303 -14ZM305 100Q269 100 241 117T198 163T182 230Q182 268 198 297T242 344T305 361Q341 361 368 344T412 298T428 230Q428 192 413 163T369 117T305 100ZM165 506L492 616L475 669L148 558L165 506Z" />
<glyph unicode="&#xf1;" horiz-adv-x="559" d="M194 460H64V0H194V460ZM361 280V0H495V294Q495 380 455 425T333 470Q279 470 241 444T182 375T162 276L194 280Q194 309 205 330T237 362T285 374Q326 374 343 350T361 280ZM94 587L159 533Q159 541 163 553T177
574T207 584Q232 584 251 571T292 546T341 533Q370 533 396 545T440 577T467 614L403 679Q388 655 373 641T341 627Q320 627 306 635T279 652T249 670T208 678Q180 678 156 665T115 632T94 587Z" />
<glyph unicode="&#xf2;" horiz-adv-x="576" d="M33 230Q33 159 66 105T157 20T288 -10Q361 -10 418 20T509 104T543 230Q543 302 510 356T419 440T288 470Q215 470 158 440T67 356T33 230ZM165 230Q165 269 181 299T226 345T288 361Q322 361 350 345T394 299T411
230Q411 191 395 162T350 116T288 99Q254 99 226 115T182 161T165 230ZM128 692L308 542L381 580L231 740L128 692Z" />
<glyph unicode="&#xf3;" horiz-adv-x="576" d="M33 230Q33 159 66 105T157 20T288 -10Q361 -10 418 20T509 104T543 230Q543 302 510 356T419 440T288 470Q215 470 158 440T67 356T33 230ZM165 230Q165 269 181 299T226 345T288 361Q322 361 350 345T394 299T411
230Q411 191 395 162T350 116T288 99Q254 99 226 115T182 161T165 230ZM448 692L345 740L195 580L268 542L448 692Z" />
<glyph unicode="&#xf4;" horiz-adv-x="576" d="M33 230Q33 159 66 105T157 20T288 -10Q361 -10 418 20T509 104T543 230Q543 302 510 356T419 440T288 470Q215 470 158 440T67 356T33 230ZM165 230Q165 269 181 299T226 345T288 361Q322 361 350 345T394 299T411
230Q411 191 395 162T350 116T288 99Q254 99 226 115T182 161T165 230ZM288 630L385 542L474 603L288 743L102 603L191 542L288 630Z" />
<glyph unicode="&#xf5;" horiz-adv-x="576" d="M33 230Q33 159 66 105T157 20T288 -10Q361 -10 418 20T509 104T543 230Q543 302 510 356T419 440T288 470Q215 470 158 440T67 356T33 230ZM165 230Q165 269 181 299T226 345T288 361Q322 361 350 345T394 299T411
230Q411 191 395 162T350 116T288 99Q254 99 226 115T182 161T165 230ZM102 587L167 533Q167 541 171 553T185 574T215 584Q240 584 259 571T300 546T349 533Q378 533 403 545T447 577T474 614L411 679Q396 655 381 641T349 627Q328 627 314 635T287 652T258 670T216
678Q188 678 164 665T123 632T102 587Z" />
<glyph unicode="&#xf6;" horiz-adv-x="576" d="M33 230Q33 159 66 105T157 20T288 -10Q361 -10 418 20T509 104T543 230Q543 302 510 356T419 440T288 470Q215 470 158 440T67 356T33 230ZM165 230Q165 269 181 299T226 345T288 361Q322 361 350 345T394 299T411
230Q411 191 395 162T350 116T288 99Q254 99 226 115T182 161T165 230ZM325 621Q325 590 348 569T403 548Q435 548 458 569T481 621Q481 653 458 673T403 694Q371 694 348 674T325 621ZM95 621Q95 590 118 569T173 548Q205 548 228 569T251 621Q251 653 228 673T173
694Q141 694 118 674T95 621Z" />
<glyph unicode="&#xf7;" horiz-adv-x="635" d="M234 521Q234 488 258 464T316 440Q352 440 375 464T398 521Q398 554 375 577T316 601Q282 601 258 578T234 521ZM234 89Q234 57 258 33T316 9Q352 9 375 33T398 89Q398 123 375 146T316 170Q282 170 258 147T234
89ZM36 249H596V367H36V249Z" />
<glyph unicode="&#xf8;" d="M33 230Q33 157 67 103T158 20T288 -10Q360 -10 417 19T509 103T543 230Q543 304 509 357T418 440T288 470Q216 470 159 441T67 358T33 230ZM157 230Q157 269 174 300T222 348T288 365Q324 365 354 348T401 300T419 230Q419 188 402
158T354 112T288 95Q252 95 222 111T175 158T157 230ZM451 504L61 -20L114 -48L504 476L451 504Z" />
<glyph unicode="&#xf9;" horiz-adv-x="559" d="M366 0H495V460H366V0ZM198 180V460H64V166Q64 80 105 35T227 -10Q281 -10 319 16T377 86T397 184L366 180Q366 151 355 130T323 98T274 86Q234 86 216 110T198 180ZM142 692L322 542L395 580L245 740L142 692Z" />
<glyph unicode="&#xfa;" horiz-adv-x="559" d="M366 0H495V460H366V0ZM198 180V460H64V166Q64 80 105 35T227 -10Q281 -10 319 16T377 86T397 184L366 180Q366 151 355 130T323 98T274 86Q234 86 216 110T198 180ZM416 692L314 740L164 580L236 542L416 692Z" />
<glyph unicode="&#xfb;" horiz-adv-x="559" d="M366 0H495V460H366V0ZM198 180V460H64V166Q64 80 105 35T227 -10Q281 -10 319 16T377 86T397 184L366 180Q366 151 355 130T323 98T274 86Q234 86 216 110T198 180ZM279 630L376 542L465 603L279 743L93 603L182
542L279 630Z" />
<glyph unicode="&#xfc;" horiz-adv-x="559" d="M366 0H495V460H366V0ZM198 180V460H64V166Q64 80 105 35T227 -10Q281 -10 319 16T377 86T397 184L366 180Q366 151 355 130T323 98T274 86Q234 86 216 110T198 180ZM317 615Q317 584 340 563T395 542Q427 542 450
563T473 615Q473 647 450 668T395 689Q363 689 340 668T317 615ZM87 615Q87 584 110 563T165 542Q197 542 220 563T243 615Q243 647 220 668T165 689Q133 689 110 668T87 615Z" />
<glyph unicode="&#xfd;" horiz-adv-x="496" d="M502 460H367L222 96L286 94L138 460H-6L185 46L69 -220H202L502 460ZM399 692L296 740L146 580L219 542L399 692Z" />
<glyph unicode="&#xfe;" horiz-adv-x="602" d="M191 -220V780H61V-220H191ZM569 230Q569 307 538 360T457 442T348 470Q291 470 247 441T176 359T150 230Q150 156 176 102T246 19T348 -10Q406 -10 456 18T538 100T569 230ZM435 230Q435 189 418 159T373 113T310
97Q281 97 254 112T209 158T191 230Q191 272 208 302T253 347T310 363Q344 363 372 347T418 301T435 230Z" />
<glyph unicode="&#xff;" horiz-adv-x="496" d="M502 460H367L222 96L286 94L138 460H-6L185 46L69 -220H202L502 460ZM285 604Q285 572 308 551T363 530Q395 530 418 551T441 604Q441 636 418 656T363 677Q331 677 308 657T285 604ZM55 604Q55 572 78 551T133
530Q165 530 188 551T211 604Q211 636 188 656T133 677Q101 677 78 657T55 604Z" />
<glyph unicode="&#x2013;" horiz-adv-x="770" d="M70 181H696V294H70V181Z" />
<glyph unicode="&#x2014;" horiz-adv-x="924" d="M70 181H852V294H70V181Z" />
<glyph unicode="&#x2018;" horiz-adv-x="314" d="M208 453L264 700H172L70 453H208Z" />
<glyph unicode="&#x2019;" horiz-adv-x="314" d="M106 700L50 453H141L244 700H106Z" />
<glyph unicode="&#x201a;" horiz-adv-x="314" d="M116 80L60 -167H151L254 80H116Z" />
<glyph unicode="&#x201c;" horiz-adv-x="535" d="M208 453L264 700H172L70 453H208ZM429 453L485 700H394L291 453H429Z" />
<glyph unicode="&#x201d;" horiz-adv-x="535" d="M106 700L50 453H141L244 700H106ZM327 700L271 453H363L465 700H327Z" />
<glyph unicode="&#x201e;" horiz-adv-x="535" d="M106 80L50 -167H141L244 80H106ZM327 80L271 -167H363L465 80H327Z" />
<glyph unicode="&#x2022;" horiz-adv-x="300" d="M76 434Q76 402 99 378T158 354Q194 354 217 378T240 434Q240 468 217 491T158 515Q123 515 100 492T76 434Z" />
<glyph unicode="&#x2039;" horiz-adv-x="350" d="M143 259L293 445L213 503L31 255L213 7L293 65L143 259Z" />
<glyph unicode="&#x203a;" horiz-adv-x="350" d="M207 251L57 65L137 7L319 255L137 503L57 445L207 251Z" />
</font>
</defs>
</svg>
